<?xml version="1.0" encoding="UTF-8" standalone="no"?>
<!-- Created with Inkscape (http://www.inkscape.org/) -->

<svg
   xmlns:dc="http://purl.org/dc/elements/1.1/"
   xmlns:cc="http://creativecommons.org/ns#"
   xmlns:rdf="http://www.w3.org/1999/02/22-rdf-syntax-ns#"
   xmlns:svg="http://www.w3.org/2000/svg"
   xmlns="http://www.w3.org/2000/svg"
   xmlns:sodipodi="http://sodipodi.sourceforge.net/DTD/sodipodi-0.dtd"
   xmlns:inkscape="http://www.inkscape.org/namespaces/inkscape"
   width="2104"
   height="1725"
   id="svg2"
   version="1.1"
   inkscape:version="0.48.4 r9939"
   sodipodi:docname="Bali_Locator_Map.svg">
  <title
     id="title6436">Bali Indonesia Locator Map</title>
  <defs
     id="defs4" />
  <sodipodi:namedview
     id="base"
     pagecolor="#ffffff"
     bordercolor="#666666"
     borderopacity="1.0"
     inkscape:pageopacity="0.0"
     inkscape:pageshadow="2"
     inkscape:zoom="0.36463768"
     inkscape:cx="1052"
     inkscape:cy="862.5"
     inkscape:document-units="px"
     inkscape:current-layer="layer11"
     showgrid="false"
     inkscape:window-width="1440"
     inkscape:window-height="844"
     inkscape:window-x="-4"
     inkscape:window-y="-4"
     inkscape:window-maximized="1" />
  <metadata
     id="metadata7">
    <rdf:RDF>
      <cc:Work
         rdf:about="">
        <dc:format>image/svg+xml</dc:format>
        <dc:type
           rdf:resource="http://purl.org/dc/dcmitype/StillImage" />
        <dc:title>Bali Indonesia Locator Map</dc:title>
        <dc:subject>
          <rdf:Bag>
            <rdf:li>Bali Indonesia Locator Map</rdf:li>
          </rdf:Bag>
        </dc:subject>
        <dc:date>2013-09-04</dc:date>
        <dc:creator>
          <cc:Agent>
            <dc:title>Blackfish</dc:title>
          </cc:Agent>
        </dc:creator>
        <cc:license
           rdf:resource="http://creativecommons.org/licenses/by-sa/3.0/" />
      </cc:Work>
      <cc:License
         rdf:about="http://creativecommons.org/licenses/by-sa/3.0/">
        <cc:permits
           rdf:resource="http://creativecommons.org/ns#Reproduction" />
        <cc:permits
           rdf:resource="http://creativecommons.org/ns#Distribution" />
        <cc:requires
           rdf:resource="http://creativecommons.org/ns#Notice" />
        <cc:requires
           rdf:resource="http://creativecommons.org/ns#Attribution" />
        <cc:permits
           rdf:resource="http://creativecommons.org/ns#DerivativeWorks" />
        <cc:requires
           rdf:resource="http://creativecommons.org/ns#ShareAlike" />
      </cc:License>
    </rdf:RDF>
  </metadata>
  <g
     inkscape:groupmode="layer"
     id="layer5"
     inkscape:label="ocean"
     style="display:inline"
     transform="translate(0,672.63782)"
     sodipodi:insensitive="true">
    <rect
       y="-672.63782"
       x="0"
       height="1725"
       width="2104"
       id="rect4210"
       style="fill:#c9ebff;fill-opacity:1;stroke:none;display:inline" />
  </g>
  <g
     inkscape:groupmode="layer"
     id="layer4"
     inkscape:label="country"
     style="display:inline"
     transform="translate(0,672.63782)"
     sodipodi:insensitive="true">
    <path
       style="fill:#fdfee4;fill-opacity:1;fill-rule:evenodd;stroke:none"
       d="m 1443.6443,436.92049 21.1492,4.22984 4.2299,3.80685 0.8459,4.22984 -3.8068,8.45968 -11.8436,7.61371 -5.9217,1.69194 -6.3448,8.45968 -10.5746,0 -6.3448,0 -3.3838,-2.96089 -2.9609,0.84597 -2.9609,-5.07581 0.846,-2.5379 -2.9609,-3.80686 5.0758,-1.69193 2.9609,1.26895 2.9609,-4.22984 3.3838,2.96089 4.6529,-2.96089 3.3838,0 2.5379,-2.11492 0.846,-12.68952 z"
       id="path6056"
       inkscape:connector-curvature="0" />
    <path
       style="fill:#fdfee4;fill-opacity:1;fill-rule:evenodd;stroke:none"
       d="m 1459.7177,467.37533 -6.3447,2.11492 -1.269,2.11492 -9.7286,5.4988 -2.1149,3.80685 -9.3057,2.11492 -4.2298,8.45968 2.1149,3.80686 7.1907,2.11492 0.423,-3.38388 3.3839,-0.84596 1.2689,-3.38387 2.9609,-0.42299 11.8436,-10.5746 z"
       id="path6058"
       inkscape:connector-curvature="0"
       sodipodi:nodetypes="ccccccccccccccc" />
    <path
       style="fill:#fdfee4;fill-opacity:1;fill-rule:evenodd;stroke:none"
       d="m 1490.5956,449.18702 -4.2299,13.11251 -4.2298,0 -5.4988,3.38387 -12.6895,15.65041 0.8459,2.96088 -2.5379,0 -3.8068,4.65283 0.423,1.69193 -2.5379,0 -6.3448,7.19073 2.5379,4.22984 -10.1516,5.07581 -3.3839,3.38387 -0.423,4.22984 5.0758,3.38387 -6.3447,4.65283 2.1149,1.69193 6.3448,-0.84597 -0.846,2.11492 3.8068,0.84597 -5.4987,10.15162 0.8459,5.0758 17.7653,-2.11491 5.4988,4.22983 1.269,5.07581 5.0758,-2.11492 7.1907,8.45968 4.2299,1.26895 -1.269,8.45968 10.1516,4.65283 4.2299,-2.11492 6.3447,7.61371 10.1516,0 11.8436,8.0367 5.0758,6.34476 -1.2689,4.65282 4.6528,0.84597 0.423,9.30564 8.8826,-3.38387 5.4988,1.69194 8.0367,1.26895 6.3448,4.65282 7.6137,0 3.8068,4.22984 5.0758,0.42299 5.0759,7.19073 7.1907,-1.69194 4.6528,1.69194 4.6528,5.49879 7.6137,0.84597 2.115,-2.11492 -1.269,-1.69194 2.1149,0.42298 2.5379,-1.26895 -0.423,-3.80685 4.2299,-0.84597 2.9609,-4.22984 7.6137,-1.26895 -0.846,-3.38388 1.269,-1.26895 -1.692,-6.76774 2.115,-4.65283 -0.423,-4.65282 3.3838,-0.84597 1.269,-6.34476 4.6528,0 2.5379,-3.38387 0,-2.5379 4.6528,-5.49879 5.9218,2.96088 4.2299,1.26896 1.6919,2.96088 2.1149,-3.80685 -5.9218,-6.34476 2.115,-5.07581 -5.9218,-8.88266 1.6919,-3.38388 -2.1149,-3.80685 0,-2.53791 -8.4597,-11.84355 -4.2298,-1.26895 -1.269,-5.49879 -13.1125,-11.42057 -5.0758,-2.5379 -2.1149,-3.38387 -0.423,-8.0367 -5.4988,-2.5379 -0.8459,-3.38388 -3.8069,-4.65282 -2.1149,-0.84597 -2.1149,-15.22742 -6.7678,-11.42057 -5.4988,-8.45968 -10.1516,-6.34476 -16.0734,-0.42298 -9.7286,4.22984 -10.9976,1.69193 -14.3815,0.42299 -14.8044,-3.38387 -11.8435,-3.80686 z"
       id="path6060"
       inkscape:connector-curvature="0" />
    <path
       style="fill:#fefee4;fill-opacity:1;fill-rule:evenodd;stroke:none"
       d="m 305.54973,-249.64241 14.51012,-3.34849 16.18437,1.11616 0.27904,2.79041 -5.58081,5.30178 -8.09219,1.3952 -6.69698,-3.62753 -10.60355,-1.11616 z"
       id="path6134"
       inkscape:connector-curvature="0" />
    <path
       style="fill:#fefee4;fill-opacity:1;fill-rule:evenodd;stroke:none"
       d="m 224.73688,-244.48016 8.50203,-4.81781 7.36842,0.2834 2.83401,-1.417 4.81781,1.417 33.1579,3.40081 5.10122,-4.81781 5.66802,1.1336 5.38461,5.10121 0,3.68422 3.40081,0 29.47369,40.52632 -0.8502,4.53441 -7.93522,7.36842 3.40081,0.85021 -2.26721,5.38461 3.68421,3.96762 4.25101,0.8502 4.81782,-0.8502 14.45344,-12.75304 0.5668,-3.40081 6.23482,-1.70041 5.95142,-7.08502 6.80162,-2.26721 3.68421,2.26721 0,7.08502 4.81782,4.53442 7.65182,-4.81782 -1.7004,-2.26721 -7.65183,0 -0.2834,-5.95141 4.81782,-3.11741 4.53441,-1.70041 4.25101,-1.1336 1.41701,-5.10122 14.45344,-4.25101 6.51822,1.1336 4.81782,4.25102 -1.98381,6.80162 -0.8502,8.21862 2.2672,3.40081 5.66802,-3.96761 1.70041,2.83401 3.96761,0.2834 1.417,-4.53442 8.50203,-2.834 -0.2834,-6.51822 2.83401,0 3.96761,-6.51822 2.26721,5.95141 12.75303,2.26721 4.81782,3.68421 1.7004,4.81782 5.10122,3.40081 4.25101,-3.11741 -0.2834,-4.81782 1.98381,-1.9838 4.53441,7.08502 4.53442,4.25101 3.68421,5.66802 5.10121,0.2834 3.11741,-1.98381 1.70041,2.26721 12.18623,3.68421 7.08503,-3.40081 13.60324,-1.1336 5.95141,2.26721 6.23482,5.66801 3.96762,1.13361 5.66801,5.38461 4.53442,-0.8502 0.5668,-4.25101 3.11741,-1.98381 0.5668,1.1336 -1.70041,3.40081 1.41701,3.11741 6.80162,2.26721 3.11741,-0.5668 13.88664,4.53441 17.28745,10.76924 6.80162,-1.70041 15.02025,5.38462 4.25101,0 38.54252,11.05263 4.25101,3.68421 7.93523,0.5668 1.7004,-0.8502 1.70041,0.2834 1.1336,4.25101 6.23482,4.25102 4.25101,-1.13361 4.53442,-5.66801 2.2672,0.8502 -1.417,3.40081 2.26721,2.83401 6.23481,0.8502 1.98381,-3.68421 1.70041,0 7.93522,4.81781 13.31984,2.55061 17.57085,-1.1336 20.40487,-8.50203 8.21862,-0.2834 7.65182,-3.11741 0,-1.9838 2.83401,-1.70041 3.96761,1.70041 22.38867,-4.25102 8.50203,3.40081 14.45344,-1.7004 28.34009,-0.5668 16.43725,-1.41701 7.93522,-4.81781 9.63563,-0.2834 4.81782,-3.11741 5.10121,-10.76923 11.90284,0 6.23482,-2.83401 3.68421,-7.65183 6.80162,-3.96761 8.78543,-7.36842 8.21862,-2.26721 4.25101,-3.96761 0,-4.25101 9.35223,-6.23482 2.83401,-6.80162 11.33604,-12.75304 5.38461,-2.26721 1.98381,-3.40081 11.05268,-9.06883 5.668,-1.7004 30.3239,-23.80567 2.2672,-3.68421 3.1174,0.8502 5.668,-0.2834 8.2186,-3.11741 31.7409,-17.28746 33.1579,-3.1174 24.0891,15.02024 4.5344,0.2834 30.3239,10.48583 13.8866,0.85021 18.7045,3.68421 11.336,5.66801 8.7855,8.21863 6.8016,1.417 12.753,7.08503 15.8705,1.1336 c 0,0 7.085,4.25101 8.2186,4.25101 1.1336,0 4.5344,0 4.5344,0 l 6.2348,3.96761 17.0041,-1.7004 4.5344,1.1336 4.5344,8.21863 5.1012,2.83401 8.2186,8.21862 12.4697,1.1336 10.7692,3.40081 5.3846,3.96762 9.0689,0.2834 15.0202,6.51822 14.17,7.93522 1.7004,3.96761 4.5345,1.70041 16.1538,2.26721 28.3401,10.48583 5.3846,7.93522 4.5344,3.96761 10.2025,8.21863 16.1538,2.55061 7.9352,10.76923 8.5021,1.7004 3.1174,1.98381 8.2186,14.17004 34.0081,17.004055 26.0729,14.453444 6.5182,5.951418 1.7004,5.384616 20.4049,19.271259 9.0688,12.753038 5.3846,13.603242 4.8178,2.550608 8.502,8.218625 2.5507,5.384616 13.8866,11.61943516 1.1336,7.93522414 10.7692,18.7044567 8.7855,4.251013 7.3684,8.785427 18.1376,1.133603 3.1174,4.251013 4.8179,-1.700405 7.6518,7.935224 7.085,1.417004 6.5182,3.684211 9.6357,9.63563 11.336,3.684211 1.9838,10.202431 11.336,11.052634 -1.1336,7.368422 2.2672,13.319845 -3.1174,2.2672 0.2834,3.11741 c 0,0 1.7004,2.26721 1.417,3.40081 -0.2834,1.13361 -5.668,11.90284 -6.8016,12.18624 -1.1336,0.2834 -5.9514,2.83401 -5.9514,2.83401 l 0,6.80162 -4.251,1.7004 -1.1336,6.23482 -7.085,4.53442 -2.2673,5.66801 -5.3846,3.11741 -15.0202,11.61944 -11.9029,3.68421 -8.502,6.51822 -22.3886,8.50203 -0.8503,8.21862 -4.251,6.23482 -15.8704,12.75304 -7.9352,22.67207 1.9838,4.25101 -2.5506,0.5668 -4.5345,-3.11741 -30.0404,15.02025 -1.7004,-2.83401 -32.3077,-11.61944 -9.0689,1.41701 -9.3522,-5.66802 -6.8016,-0.2834 -21.2551,7.93522 -6.2348,6.51822 -1.1336,7.65183 4.251,2.5506 3.1174,9.63563 0.2834,5.66802 -1.1336,0.5668 -1.9838,-3.96761 -4.251,1.70041 2.5506,3.96761 -1.1336,7.08502 -33.7247,11.61943 -10.7692,0 -11.0527,3.96762 -18.1376,19.83806 -22.3887,5.95142 -33.4413,1.7004 -8.2186,-2.26721 -24.3725,-0.8502 -9.919,2.55061 -11.9029,5.95142 -5.1012,4.81781 -4.5344,10.20243 -9.919,4.53442 -3.6842,2.834 -11.6195,6.23482 -6.2348,10.20243 -21.8219,12.75304 -1.1336,3.68421 -19.2712,18.42106 -21.8219,15.58705 -7.9352,11.33603 -0.2834,4.53442 4.5344,10.48583 -1.1336,6.51822 3.6842,11.61943 -2.834,15.02025 -4.251,5.10121 -10.2024,4.81782 -3.4008,0 -0.2834,-1.98381 -5.6681,-0.2834 -4.8178,5.38462 -9.919,5.10121 -7.085,0.2834 -3.4008,4.25102 3.9676,3.11741 -1.417,1.9838 -3.9676,-2.5506 -4.2511,1.7004 -5.3846,0 -2.5506,9.63563 -4.5344,1.7004 5.3846,1.70041 0,2.83401 -2.5506,7.93522 -5.9514,-0.2834 1.1336,-9.35223 -2.2672,-1.1336 -1.1336,-0.2834 -5.0674,1.81109 -3.4008,3.98646 -1.3088,3.40133 -0.4592,9.10207 1.7342,10.88934 4.251,8.50202 7.6518,7.65183 5.9514,5.66801 2.2672,5.66802 -0.2834,2.26721 6.5182,1.417 -3.1174,-3.40081 -3.4008,-11.05263 4.8178,-3.40081 -3.1174,-7.36842 0.5668,-7.08503 1.1336,-2.834 -0.8502,-3.68422 2.2672,-2.834 4.8178,0.2834 2.2673,9.63563 0.2834,14.45344 3.9676,16.43725 3.4008,1.70041 4.8178,12.18623 3.4008,-0.2834 0.5668,2.26721 -1.1336,1.7004 4.5344,1.41701 0,3.11741 -4.8178,-0.85021 -4.8178,3.96762 -1.1336,6.23482 -6.5182,6.23481 -3.4008,5.95142 -5.9515,12.18624 -15.8704,6.23482 c 0,0 -6.5182,5.10121 -7.9352,5.38461 -1.417,0.28341 -9.9191,1.98381 -9.9191,1.98381 l -13.6032,4.81782 -15.8705,1.7004 -19.5546,-1.1336 -26.9231,-0.85021 -18.4211,-2.2672 -28.9068,-9.91903 -1.1336,-5.95142 -2.5507,-4.25101 0.8503,-9.35223 5.3846,-9.06883 9.0688,-0.2834 4.8178,-4.25101 4.251,0.8502 6.5182,-4.25101 7.6519,-4.81782 1.9838,-10.20243 2.2672,-2.26721 1.417,0.56681 4.5344,-3.68422 8.7854,-0.8502 1.7004,-3.96761 4.5344,-0.8502 6.2349,-7.36843 9.0688,0 8.2186,1.41701 5.668,1.1336 4.8178,-4.81781 3.6843,-10.76923 0.2834,-11.61944 -3.9677,-5.10122 -7.6518,-5.95141 -7.6518,0 -1.1336,-3.96762 8.502,-0.5668 2.834,-10.48583 2.834,-9.35223 6.5183,-9.35223 -3.1175,-14.17004 -6.5182,-16.15385 -8.7854,-11.90283 -9.3522,-14.17005 -9.6357,-11.61943 -16.7206,-13.88664 -11.0526,-9.06883 -17.0041,-7.65183 -4.5344,-10.20243 -5.3846,-4.53441 -10.2025,-17.00405 -0.5668,-8.21863 -3.68417,-2.5506 -1.9838,0.2834 -9.91903,-13.60325 -23.23887,-20.68826 -25.78948,-21.82186 -15.87045,-10.20244 -12.75304,-11.33603 -7.93522,-3.11741 -2.26721,-0.5668 -0.2834,-4.25101 -1.70041,0 -0.5668,-4.81782 -17.85425,-17.57085 -6.23482,-3.11741 -4.53441,-7.08502 -9.35223,-5.95142 -6.23482,0 -0.8502,-3.40081 -5.38462,-2.55061 -11.61944,-12.18624 1.70041,-1.7004 -11.05263,-9.06883 -15.30365,-10.20243 -9.63563,-2.55061 c 0,0 -10.48583,-8.78542 -12.75304,-9.63563 -2.26721,-0.8502 -23.80567,-12.18623 -23.80567,-12.18623 l -7.08502,-0.2834 -39.10932,-14.45345 -15.02025,-3.40081 -11.33603,-0.5668 -6.51822,-4.81782 -2.26721,-0.2834 -1.7004,-6.51822 -5.38462,-1.417 -6.80162,-3.68421 -2.26721,-7.08502 -5.38461,-3.68421 -12.46964,-3.40081 c 0,0 -24.65588,-4.53442 -26.07288,-5.66802 -1.417,-1.13361 -18.98786,-5.66802 -18.98786,-5.66802 l -18.13765,-3.40081 -10.20243,-0.2834 -35.70851,0.8502 -26.35628,1.98381 -27.20649,6.51822 -19.83806,3.96761 -20.12146,-0.8502 -18.13765,-3.96761 -3.96761,-0.56681 -5.95142,0.2834 -10.48583,-2.2672 -7.08503,-4.53442 -1.417,-3.11741 -7.93522,-7.08502 1.1336,-2.83401 -0.5668,-0.8502 1.417,-3.11741 -14.17004,-15.020243 -8.78543,-5.101215 0,-2.550608 -12.18623,-12.753039 -1.70041,-8.218625 -6.51822,-5.951418 -14.73684,-5.384616 -10.76924,-9.068828 -0.2834,-6.234819 0,-6.801621 3.68421,-5.951418 -1.9838,-8.7854263 -11.90284,-9.06882754 -17.57085,-18.70445716 -7.08502,-4.817814 -0.2834,-2.550608 -7.93523,-5.384616 -2.26721,-6.51822 -1.7004,-3.11741 0,-5.101215 -8.21863,-12.469638 -4.53441,-9.068828 -7.36842,-4.817814 -3.96761,-8.502026 -8.21863,-7.935224 c 0,0 -5.10121,-14.170046 -6.80162,-14.736846 -1.7004,-0.5668 -7.65182,-30.32389 -7.65182,-30.32389 l -1.98381,-3.40081 0.5668,-3.40081 -5.66801,-4.25101 -0.85021,-4.25102 -1.9838,-3.68421 0.5668,-5.95142 1.9838,-3.68421 3.96762,-6.80162 1.9838,0.2834 0,3.68421 3.68421,2.55061 4.25102,6.23482 -0.2834,6.51822 -3.68421,1.98381 -0.28341,2.5506 1.98381,0.85021 3.11741,-1.70041 6.23482,-1.1336 9.06883,-13.88664 1.9838,0.8502 -0.5668,4.81781 4.81782,-2.2672 5.38461,-4.53442 -7.08502,-4.25101 -2.83401,0.5668 -1.1336,-3.40081 -7.36842,1.1336 -9.06883,-4.53441 -1.13361,-10.48583 1.98381,-3.68421 -0.2834,-5.10122 -2.55061,-10.76923 -5.95142,-6.80162 -7.65182,-8.50203 0.8502,-3.11741 0.5668,-7.65182 1.41701,-6.23482 -0.5668,-3.68421 z"
       id="path6136"
       inkscape:connector-curvature="0"
       sodipodi:nodetypes="ccccccccccccccccccccccccccccccccccccccccccccccccccccccccccccccccccccccccccccccccccccccccccccccccccccccccccccccccccccccccccccccccccccccccccccccccccccsccccccccccccccccccccccccccccccccccccccccccccccccccccccsscccccccccccccccccccccccccccccccccccccccccccccccccccccccccccccccccccccccccccccccccccccccccccccccccccccccccccccccccccccccccsccccccccccccccccccccccccccccccccccccccccccccccccccccccccccccccccccccccccccscccccccccccccscccccccccccccccccccccccccccccccccccccccccccscccccccccccccccccccccccccccccccccccccccc" />
    <path
       style="fill:#fefee4;fill-opacity:1;fill-rule:evenodd;stroke:none"
       d="m 1176.5757,513.04598 5.9645,-2.51136 3.1392,-2.82529 4.7089,0.62784 5.6505,5.02274 0.9418,4.39489 -2.5114,0.94176 -2.1974,-1.5696 -1.2557,-1.88353 -2.1974,1.88353 1.8835,1.88352 1.8835,0 0.3139,2.19745 -3.1392,0 0.3139,1.88352 -3.767,4.08098 1.5696,0.31392 3.1392,-3.13921 2.5114,0.62784 2.5113,-2.19745 -0.6278,-2.51136 2.8253,-3.45313 3.4531,0.31392 0,1.88352 -2.1974,3.13921 0.3139,3.13921 -4.3949,1.25569 -0.6279,4.08097 -5.6505,5.02273 -4.7088,-0.31392 -2.5114,-3.45313 -2.5114,-1.88352 -3.4531,0 -0.3139,3.13921 3.1392,2.51136 3.1392,0 2.8253,2.82529 -1.5696,2.82529 -3.1392,0.31392 -1.2557,4.08097 -1.8835,0.62785 -6.2785,-3.13921 -1.5696,0 -5.3366,-2.82529 1.8835,-10.04547 2.1974,-6.59234 1.8836,-4.3949 3.4531,-1.5696 z"
       id="path6138"
       inkscape:connector-curvature="0" />
  </g>
  <g
     inkscape:groupmode="layer"
     id="layer10"
     inkscape:label="otherCountries"
     style="display:inline"
     transform="translate(0,672.63782)"
     sodipodi:insensitive="true">
    <path
       inkscape:connector-curvature="0"
       style="fill:#e0e0e0;fill-opacity:1;stroke:none;display:inline"
       d="m 0.59375,-672.00406 0,1035.50404 6,1.125 12.0625,3.9063 17.09375,8.1562 17.46875,3.5 13.625,4.6563 15.90625,6.5937 7.40625,3.9063 13.59375,8.9375 12.4375,9.6875 16.3125,15.1562 7.75,10.125 7.40625,13.5938 1.53125,9.3125 2.71875,5.0625 -0.375,5.8125 3.125,7 0,7.375 -4.6875,11.2812 -2.3125,7 -7,6.9688 -14,7.4062 -3.875,0 -1.9375,3.0938 -7.78125,2.7187 -0.375,3.125 1.9375,5.8125 6.59375,1.9375 4.65625,2.3438 8.9375,1.5625 9.34375,3.875 3.875,-1.1563 12.4375,0.375 10.5,3.9063 2.71875,-1.1875 2.3125,0.7812 8.9375,0 7,-1.9375 7.375,-1.5625 6.625,-0.375 3.875,1.9375 3.125,0 3.875,1.5625 8.53125,-1.1875 8.1875,1.9688 10.09375,1.9375 10.09375,3.0937 14.78125,4.6563 7.75,0.4062 5.84375,4.2813 5.4375,2.7187 10.09375,6.5938 11.65625,5.0625 28.375,4.6562 10.875,0.7813 7.375,-2.3438 2.34375,0 7.75,-3.0937 21.375,-4.2813 7.375,-4.6562 14,-6.2188 0,-2.7187 2.71875,-4.2813 6.59375,-9.7187 -0.375,-9.3125 3.09375,-8.1563 6.21875,-11.6562 1.5625,-6.625 0,-7.7813 -8.9375,-10.4687 0.40625,-7.375 -10.90625,-15.1563 -2.3125,0 -4.65625,-8.1562 -8.5625,-9.7188 -5.8125,-12.8437 -7.40625,-5.4375 -13.96875,0.4062 -4.65625,2.3125 -7,0.4063 -6.21875,-3.9063 -9.34375,-0.375 -6.59375,-5.0625 -7.375,0.4063 -7.375,-3.5 -3.5,-5.8438 -3.125,-4.25 -1.5625,-6.2187 -11.25,-1.1875 -9.71875,-5.4375 -3.09375,-7.75 -3.125,-2.3438 -2.3125,-5.4375 -4.6875,0 -1.53125,-0.375 -5.0625,0 -8.5625,9.6875 -0.375,5.4375 -3.09375,3.5 -4.6875,7.7813 -6.21875,-1.1563 -4.65625,1.9375 -5.4375,-3.875 -5.0625,-4.2812 -2.3125,-5.4375 0.375,-6.2188 -6.96875,-11.2812 -5.46875,-5.0313 -5.8125,-4.6875 -2.34375,-4.6562 -1.53125,-7 -1.1875,-5.8125 -2.71875,-8.9376 -4.25,-5.0625 -4.28125,-6.5937 -3.125,-7 0,-7.375 0,-9.71875 -3.875,-6.59375 -3.5,-6.21875 -0.375,-7.375 0.75,-7 2.34375,-9.34375 6.21875,-5.4375 -0.375,-3.09375 0.375,-2.34375 -0.375,-2.3125 1.15625,-3.5 -5.0625,-7.40625 0.40625,-2.71875 -2.71875,-4.65625 -5.0625,-0.375 -0.375,-2.34375 -1.1875,-0.78125 -0.375,-2.3125 -1.15625,-3.5 -0.78125,-4.65625 0.78125,-4.28125 1.15625,-4.65625 0,-8.15625 3.09375,-11.65625 -1.9375,-7.40625 -8.15625,-8.9375 -6.21875,-3.875 -3.09375,-0.375 -1.96875,2.71875 0.78125,8.53125 2.71875,5.0625 0,7 1.1875,10.09375 1.9375,8.9375 -2.34375,3.875 0,4.28125 -1.15625,2.3125 0,8.5625 1.15625,9.3125 -2.71875,10.125 -2.3125,3.5 -4.28125,10.46875 -0.40625,5.4375 -4.65625,7.40625 -9.71875,2.3125 0,2.71875 -1.9375,-2.3125 -7,-3.90625 -2.3125,2.71875 -0.78125,-3.875 -3.125,-2.34375 -1.53125,-3.09375 -0.78125,-5.0625 1.9375,-1.9375 0,-4.28125 3.875,-6.21875 -1.15625,-2.71875 3.125,0.40625 1.15625,-9.34375 -1.5625,-3.09375 0.78125,-1.15625 3.875,-0.40625 1.5625,-4.28125 -1.9375,-1.9375 -1.5625,-2.71875 3.875,2.71875 0.78125,-3.09375 2.34375,0 0.78125,-2.71875 -1.5625,-4.65625 6.59375,-8.9375 -2.3125,-3.90625 -1.5625,-0.375 -3.875,-3.875 -3.5,1.15625 -5.84375,-4.65625 0,-4.28125 2.71875,-4.28125 -2.3125,-3.09375 0,-3.5 -5.84375,-8.15625 -5.4375,-3.5 -2.71875,-8.15625 -2.71875,-2.34375 -1.9375,-7.78125 -0.78125,-1.9375 0,-7.375 1.15625,-11.28125 5.84375,-13.96875 0,-9.71875 2.34375,-5.0625 0.75,-10.46875 4.28125,-10.499997 -0.78125,-2.34375 0.78125,-11.25 -0.78125,-0.40625 1.1875,-10.875 3.09375,-8.15625 4.65625,-7.375 2.34375,-8.15625 -3.5,-3.5 -0.375,-4.65625 3.46875,-10.5 5.4375,-10.5 -0.75,-3.8750004 -0.40625,-5.4375 -1.5625,-2.71874998 2.71875,-12.43749962 0.40625,-10.5 5.8125,-16.3125 9.34375,-13.21875 8.53125,-17.09375 5.84375,-8.53125 0.78125,-5.84375 -1.5625,-10.09375 -4.65625,-7.781253 0.375,-13.96875 -0.78125,-2.34375 -3.5,2.71875 -2.3125,-0.78125 0,-3.09375 3.5,-3.90625 -0.40625,-4.65625 2.34375,-4.65625 0.375,-3.875 7,-10.90625 0.40625,-2.71875 3.46875,-5.4375 1.5625,-12.03125 3.5,-8.15625 4.65625,-6.625 -1.53125,-10.46875 1.15625,-3.125 -1.5625,0 1.5625,-5.03125 -1.5625,-4.6875 0,-6.59375 -1.15625,-4.65625 1.5625,-6.59375 6.59375,-3.5 0.78125,-5.0625 5.4375,-10.09375 5.4375,-9.34375 0.78125,-10.09375 1.5625,-3.875 -0.40625,-2.34375 4.65625,-4.65625 4.6875,-7.375 3.46875,-0.78125 1.96875,-3.125 1.15625,-10.09375 -1.15625,-6.21875 0.375,-2.71875 -1.9375,-5.0625 2.71875,-7.75 2.34375,-1.1875 1.53125,-4.25 -0.78125,-4.6875 -2.71875,-4.25 0,-4.28125 -6.59375,-4.28125 0.78125,-4.65625 -1.5625,-3.5 3.5,-6.59375 0,-7.40625 1.9375,-5.8125 -0.78125,-5.84375 -4.65625,-8.90625 0,-16.71875 -4.28125,-13.21875 1.1875,-5.4375 -0.40625,-4.28125 1.1875,-5.8125 0.75,-5.0625 -1.15625,-3.5 1.15625,-2.71875 -2.3125,-8.15625 -2.34375,-6.21875 0.40625,-5.4375 2.3125,-4.28125 5.84375,-6.59375 11.25,-3.875 2.34375,-8.15625 4.28125,-4.6875 24.09375,-10.09375 2.3125,-5.4375 -1.5625,-3.5 0.78125,-3.875 -3.09375,-3.90625 1.5625,-6.96875 -2.34375,-7 -2.71875,0 -1.9375,-3.5 3.5,-4.28125 4.65625,-0.375 0.78125,-3.90625 -1.5625,-3.875 -5.84375,-1.15625 1.1875,-1.5625 -2.34375,-2.34375 2.71875,0 4.28125,-5.8125 -0.375,-3.875 2.71875,-3.125 3.09375,-1.5625 -3.5,-1.53125 -1.15625,-5.4375 1.9375,-1.1875 -0.375,-5.4375 -4.6875,-5.8125 -1.53125,-5.4375 -2.71875,-1.1875 0.375,-4.25 -4.28125,-1.1875 -0.78125,-9.3125 -1.9375,0 0,2.71875 -3.09375,2.71875 -1.9375,-1.9375 1.9375,-3.5 -2.34375,-3.5 -2.71875,0.78125 -3.09375,-2.71875 0.375,-2.71875 -0.78125,-4.28125 -5.03125,-3.875 -5.0625,5.4375 -3.875,-1.1875 -2.34375,-4.25 -8.15625,-1.5625 -8.5625,-10.875 -4.25,0.375 -6.21875,-9.71875 -4.6875,-1.15625 -9.3125,2.71875 -4.28125,-3.5 -3.875,-6.59375 -8.15625,-3.125 -1.9375,-5.03125 -5.0625,-0.40625 -0.375,-3.5 3.09375,-1.15625 -0.375,-1.9375 -3.5,0.78125 -5.0625,-1.9375 -5.4375,-2.71875 -1.15625,1.9375 1.53125,3.875 6.625,1.5625 1.9375,0.375 0,3.125 -5.0625,0.375 -4.25,-3.5 -9.71875,0.78125 -6.21875,-1.9375 -3.5,1.15625 0,2.34375 -11.65625,0 -4.65625,2.3125 -13.21875,0.78125 -3.875,-1.9375 -4.6875,-3.5 -3.875,-7 -3.875,-2.3125 -7.78125,0 -5.8125,2.71875 -6.625,-1.5625 -4.28125,-3.9375 z"
       id="path4208"
       sodipodi:nodetypes="ccccccccccccccccccccccccccccccccccccccccccccccccccccccccccccccccccccccccccccccccccccccccccccccccccccccccccccccccccccccccccccccccccccccccccccccccccccccccccccccccccccccccccccccccccccccccccccccccccccccccccccccccccccccccccccccccccccccccccccccccccccccccccccccccccccccccccccccccccccccccccccccccccccccccccccccccccccccccccccccccccccccccccccccccccccccccccccccccccccccccccccccccccccccccccccccccccc" />
    <path
       inkscape:connector-curvature="0"
       style="fill:#e0e0e0;fill-opacity:1;fill-rule:evenodd;stroke:none;display:inline"
       d="m 1926.0939,506.24998 -11.125,6.6563 -1.7814,-0.4375 -4.875,4.9062 -1.7813,5.3125 -0.4687,9.3438 -2.2186,1.3437 -7.0939,3.125 -3.5625,6.6563 -5.3436,0 -0.9064,1.7812 1.7814,4.4375 3.5624,3.125 -2.6562,8.875 1.3438,7.125 3.5312,5.3438 2.6875,1.3437 0.4375,11.5625 -2.2188,6.2188 -2.2187,5.3437 3.5625,-0.4687 -2.6875,7.5625 5.3437,-2.6563 2.2188,2.6563 -2.6562,3.125 4.4374,2.2187 0,3.5625 -3.5624,5.3438 0,2.6562 4.9062,-4 4,0 0.4375,2.6563 2.6563,0 2.25,-2.2188 6.2187,0.9063 -0.4375,4 -5.3438,4.875 1.7813,5.3437 4.4375,1.3438 4,-4.4375 7.125,1.75 6.6562,-3.5313 2.2188,-3.5625 4.9062,0.4375 5.3438,6.6563 4.875,3.125 3.125,5.3437 2.2188,-0.4375 2.6562,-5.3437 2.6875,-0.4375 6.2187,8 5.3438,-1.3438 6.2188,-1.3437 4,6.6875 -0.4376,4 6.6563,2.6562 4.4687,0.9063 -1.3437,4.875 4.4375,-0.4375 4.4688,0.4375 2.2187,-7.5625 -1.3437,-2.6563 7.5624,-4.4375 7.5626,0 9.3437,8 4.875,2.2188 3.125,4.4375 -2.6563,4 1.3126,4 4.9062,0.4687 1.7812,4 3.0938,0.875 9.3438,7.125 -2.2188,4.4375 -0.4375,2.6875 6.6563,1.7813 5.7812,-0.9063 1.7812,2.6563 -1.7812,3.125 1.3438,7.125 9.3437,-2.6875 1.7813,5.3437 3.0937,1.3438 1.7813,-1.7813 4.4687,4.9063 -1.7813,3.5312 3.5626,3.5625 5.3124,-4.4375 3.125,2.6563 0,4 -4,5.3437 7.875,0.3438 0,-188.5313 -10.0937,-8.375 -3.125,-5.7812 -3.5625,-2.2188 -3.0938,2.6563 0,4.9062 -3.5624,2.2188 -7.5626,-4.4375 -6.6874,0.4375 -2.6563,-1.3438 0,-6.2187 -1.7813,0 -0.875,7.125 2.2188,3.0937 -7.5625,5.7813 -5.7813,5.3437 -7.5625,0.4375 -9.3438,9.7813 1.7811,5.7812 -4.9061,8.9063 -6.2189,4.4375 -2.6561,0 -2.6875,-1.3125 -11.0937,0.4375 -0.9063,3.5625 -0.4375,2.6562 -3.5625,3.125 -6.6564,-3.125 -6.25,-2.2187 -1.3124,-2.2188 0,-3.5625 -7.125,-5.7812 -4.4376,-2.6875 4,-4.875 -0.9061,-3.125 4,-4 -1.3125,-4 -3.125,-1.7813 -3.5625,0.4375 2.2188,5.3438 -9.3125,13.7812 1.75,4 -3.5312,-1.75 -4.9062,0.4375 -2.6563,-4 3.0937,-4.9062 -5.3125,-6.6563 -2.25,0 -2.2188,-3.5625 -9.7812,-2.6875 -3.0938,-4.4375 0,-4 5.7811,-9.3437 0,-4.875 -4.0311,-4.9063 -1.3125,-2.6562 -3.125,3.0937 -2.6564,4 -3.5624,-2.2187 -1.3438,-3.5625 -2.6562,-3.0938 z"
       id="path6101" />
    <path
       style="fill:#e0e0e0;fill-opacity:1;fill-rule:evenodd;stroke:none;display:inline"
       d="m 1996.3541,500.01828 4.0026,-0.4448 3.5578,5.3367 -0.8894,3.1131 -3.1131,0 z"
       id="path6103"
       inkscape:connector-curvature="0" />
    <path
       style="fill:#e0e0e0;fill-opacity:1;fill-rule:evenodd;stroke:none;display:inline"
       d="m 1983.4573,512.91518 3.5578,-3.1131 4.0025,0.8895 3.113,4.0025 0.4448,5.3366 -8.005,0 z"
       id="path6105"
       inkscape:connector-curvature="0" />
    <path
       style="fill:#e0e0e0;fill-opacity:1;fill-rule:evenodd;stroke:none;display:inline"
       d="m 1963.4449,519.58598 6.2261,0.8895 2.2236,5.3366 -0.4448,12.4522 -9.7838,-4.4472 -1.7789,-5.7814 -1.3342,-3.113 z"
       id="path6107"
       inkscape:connector-curvature="0" />
    <path
       style="fill:#e0e0e0;fill-opacity:1;fill-rule:evenodd;stroke:none;display:inline"
       d="m 2007.917,514.69408 5.3367,1.3341 2.2236,7.5603 -3.1131,3.1131 0,6.226 10.2286,13.3417 -0.4447,6.6708 2.6683,5.7814 -4.0025,-2.2236 -7.1156,-2.2236 -0.4447,-6.6708 -2.6685,-2.2237 -0.4447,-4.0024 -3.113,0 -5.7814,1.3341 -3.1131,1.3342 -0.8894,-2.2236 5.7814,-5.3367 2.6683,-0.8894 2.2236,-4.4472 -2.6683,-2.6684 -5.3367,-1.7788 1.7789,-2.6684 2.6683,-0.8894 0,-4.892 z"
       id="path6109"
       inkscape:connector-curvature="0" />
  </g>
  <g
     inkscape:groupmode="layer"
     id="layer9"
     inkscape:label="river"
     transform="translate(0,672.63782)"
     style="display:inline"
     sodipodi:insensitive="true">
    <path
       style="fill:none;stroke:#0978ab;stroke-width:1;stroke-linecap:round;stroke-linejoin:round;stroke-miterlimit:4;stroke-opacity:1;stroke-dasharray:none;stroke-dashoffset:0"
       d="m 424.66529,124.37696 2.26721,-2.0928 5.75521,0 5.58082,-2.79041 7.15042,-1.91841 5.40642,-3.48801 -0.1744,-6.10402 -1.91841,-1.9184 0.1744,-3.13921 -2.7904,-2.96481 -2.44161,-0.348802 -2.26721,-1.744005 0.5232,-4.360013"
       id="path6392"
       inkscape:connector-curvature="0" />
    <path
       style="fill:none;stroke:#0978ab;stroke-width:1;stroke-linecap:round;stroke-linejoin:round;stroke-miterlimit:4;stroke-opacity:1;stroke-dasharray:none;stroke-dashoffset:0"
       d="m 451.17417,114.08733 8.19683,0.3488 5.40641,4.01122 7.67363,-6.62722 1.0464,-3.66242 3.13921,-2.7904 5.92962,0"
       id="path6394"
       inkscape:connector-curvature="0" />
  </g>
  <g
     inkscape:groupmode="layer"
     id="layer2"
     inkscape:label="kabupaten"
     style="display:inline"
     sodipodi:insensitive="true">
    <path
       style="fill:none;stroke:#646464;stroke-width:1;stroke-linecap:round;stroke-linejoin:round;stroke-miterlimit:4;stroke-opacity:1;stroke-dasharray:none;stroke-dashoffset:0;display:inline"
       d="m 253.71,516.80203 -4.26094,4.94797 -0.85428,17.93983 8.54278,5.5528 26.05546,2.13569 11.10561,-5.12566 7.6885,7.26136 7.6885,-0.42714 3.41711,8.11564 11.53275,-0.42714 15.80413,-17.08555 19.22125,7.68849 9.82419,-0.42713 6.83422,-4.69853 10.67847,-3.41711 21.78408,-18.36697 19.64838,2.98997 10.25134,7.6885 6.40708,0.42714 0.42714,5.12566 7.52741,11.56515 6.99531,16.62602 9.39705,7.68849 14.94986,5.97995 0.42714,4.27138 19.22124,-5.97994 8.54278,2.1357 10.67847,8.96991 2.98997,-0.85428 5.97994,-14.52272 -0.42714,-12.38702 11.10561,-11.10561 3.41711,-0.42714 5.55281,5.97994 20.50266,13.66845 28.19116,11.1056 4.69853,7.6885 4.69852,0.85428 7.26136,21.78408 3.84425,7.26136 7.26136,0 4.27139,11.10561 4.69853,-4.69853 5.12566,0 0.85428,-6.83422 5.5528,0 10.67847,2.56283 0.42714,-4.27139 6.83422,-2.98997 6.35457,2.37023 10.30385,9.16252 -1.28142,3.84425 -7.6885,1.28142 4.69853,13.66844 -2.98997,0.85428 8.11563,8.96991 -2.98997,5.12567 0.85428,7.26136 2.56283,0 1.28142,16.23127 -1.28142,11.10561 7.26136,2.56283 -2.56283,3.84425 1.28142,11.10561 18.7941,8.54277 5.12567,-5.12566 3.84425,3.41711 3.84425,-1.28142 12.38702,7.26136 c 0,0 -0.85428,-8.54277 1.28142,-8.54277 2.13569,0 10.25133,1.28141 10.25133,1.28141 l 10.25133,11.10561 6.83422,0.42714 8.11564,11.53275 7.26136,1.70855 2.13569,10.67847 5.55281,7.26136 0.42714,3.41711 10.67847,5.97995 22.63835,4.27138 0,5.12567 7.26136,6.40708 -2.13569,7.26136 -12.81417,21.35694 -1.70855,7.26136 2.98997,1.28142 -0.42714,13.66844 1.70856,5.5528 -2.56284,12.38703 -7.6885,8.54277 -2.40587,15.9611"
       id="path3063"
       inkscape:connector-curvature="0"
       sodipodi:nodetypes="cccccccccccccccccccccccccccccccccccccccccccccccccccccccccccccccccccccsccccccccccccccccccccc" />
    <path
       style="fill:none;stroke:#646464;stroke-width:1;stroke-linecap:round;stroke-linejoin:round;stroke-miterlimit:4;stroke-opacity:1;stroke-dasharray:none;stroke-dashoffset:0;display:inline"
       d="m 1450.2831,509.59251 -16.2958,8.21769 0,5.88236 -5.2288,3.92157 3.268,6.53595 11.1111,5.88235 6.5359,9.15033 -10.4575,5.88235 -3.2679,9.80393 -5.8824,7.84314 7.8431,9.15033 0.6536,11.11111 3.268,5.22876 -1.3072,5.88235 4.5752,1.96079 7.1895,-4.57517 1.9608,7.84314 -12.4183,5.22876 -7.8431,9.15033 -14.3791,7.84314 -1.3072,6.53595 3.268,3.92157 -8.4968,22.87582 -2.6144,12.4183 -3.2679,1.30719 2.6144,7.84314 -7.1896,1.96079 1.9608,7.84314 -9.8039,3.26797 0,18.30066 -3.9216,3.92157 -7.8431,2.61438 -3.268,20.26144 9.8039,21.56863 -1.9608,3.92157 3.9216,5.22876 2.6144,11.11112 10.4575,7.18954 -1.3072,9.80392 -3.268,10.45752 2.6144,13.7255 -9.1503,25.4902 -5.8824,1.96078 -0.6536,5.22876 -9.8039,-0.65359 -9.1503,13.0719 -12.4183,-7.18955 -11.7647,17.64707 -4.5752,15.68627 -5.8824,7.84314 -1.3071,11.11112 -4.5752,7.18954 5.8823,13.0719 -18.3006,5.88235 -8.4967,-4.57516 -2.6144,-5.22876 -5.8824,-6.53595 2.6144,-7.18954 -3.9216,-14.37909 -5.2287,-4.57517 4.5751,-6.53595 0,-11.11111 -1.9607,-5.88235 1.9607,-8.49674 -3.9215,-18.95425 -3.268,-9.80392 -5.2288,-8.49674 16.9935,-20.91504 0.6536,-22.22222 5.8824,-14.37909 -0.6536,-6.53595 -1.9608,-1.96079 3.9215,-6.53595 -0.6536,-7.18954 -12.4183,-2.61438 -1.3071,-2.61438 5.8823,-5.88235 0,-16.99347 -2.6144,-16.99347 -6.5359,-1.96078 -7.1896,9.80392 -2.6143,-9.15033 -9.1504,-0.65359 -7.1895,7.84314 -9.1503,-3.92157 -0.6536,-5.88236 -1.3072,-13.0719 -7.1896,-3.26797 -17.647,11.76471 -8.4968,12.4183 -1.9608,-0.65359 0.6536,-13.7255 -5.8823,-7.84314 -8.4968,-0.65359 -4.5751,-12.41831 -3.9216,-12.4183 1.9608,-18.30066 5.2288,-11.76471 0,-9.80392 -13.0719,-18.95425 -9.1504,-5.22876 7.1896,-10.45752 5.2287,-16.99347 1.3072,-16.33987 3.268,-10.45752 -4.5752,-10.45752 3.268,-5.88235 -1.3072,-4.57517 2.6144,-8.49673 11.7647,9.15033 4.5752,-7.18955 7.8431,-9.15033 8.4967,-1.30719 7.8432,-4.57516 2.6144,3.92157 0,5.88235 8.4967,3.26798 5.2288,-1.96079 9.8039,5.88236 7.1895,0 -3.9215,-8.49674 9.8039,-4.57516 7.1895,-11.76471 -1.9608,-7.84314 9.1504,-4.57516 10.4575,13.72549 7.1895,-5.22876 0,-9.80392 11.1111,8.49673 5.8824,1.96079 10.4575,-7.84314 5.2288,0.65359 -5.2288,8.49674 9.1503,0.65359 -5.2287,5.22876 1.9608,8.49673 7.1895,5.22876 5.2288,-7.18954 5.2287,5.22876 -1.9607,5.22876 10.4575,6.53595 11.7647,1.30719 6.5359,-10.45752 12.4183,3.26797 7.1896,5.22876 -5.2288,7.84314 1.9608,5.22876 18.3007,-5.88235 6.4919,-1.26319"
       id="path3833"
       inkscape:connector-curvature="0"
       sodipodi:nodetypes="ccccccccccccccccccccccccccccccccccccccccccccccccccccccccccccccccccccccccccccccccccccccccccccccccccccccccccccccccccccccccccccccccccccccccccccccccccccc" />
    <path
       style="fill:none;stroke:#646464;stroke-width:1;stroke-linecap:round;stroke-linejoin:round;stroke-miterlimit:4;stroke-opacity:1;stroke-dasharray:none;stroke-dashoffset:0;display:inline"
       d="m 820.14029,771.38229 0.25288,-5.04889 -3.08253,-1.32109 2.20181,-14.09156 2.64217,-8.36686 5.72469,-3.08253 3.96326,4.84397 10.12831,0.44036 7.9265,-23.77951 -0.44036,-4.84397 5.7247,-7.92651 -2.20181,-9.68795 6.60542,-14.97228 5.7247,-6.16506 9.68795,-3.08253 9.24759,-5.28434 -3.52289,-11.00903 7.04578,0 7.9265,11.00903 0.44036,1.32109 7.04578,0.88072 16.29337,14.53192 7.04578,-5.28433 5.28434,2.64217 3.52289,-8.80723 5.7247,-2.20181 13.21084,6.60542 3.96325,3.96325 7.48614,-2.2018 12.77048,4.40361 30.38491,2.64217 8.8073,-7.92651 9.6879,0.44037 -1.7614,-8.36687 4.4036,-3.52289 11.009,5.7247 4.4036,7.04578 8.8072,0 3.0826,-9.68795 0.8807,-11.4494 11.009,-22.45842 11.0091,-5.7247 3.0825,-7.04578 9.2476,-1.32109 8.3668,-5.28433 5.2844,-0.88073 3.0825,-7.9265 10.1283,-6.16506 5.7247,2.64217 19.8163,0 2.6421,3.08253 13.2109,-0.44036 11.8897,-4.84398 7.9265,0 0.525,-4.03081"
       id="path3835"
       inkscape:connector-curvature="0"
       sodipodi:nodetypes="ccccccccccccccccccccccccccccccccccccccccccccccccccccccc" />
    <path
       style="fill:none;stroke:#646464;stroke-width:1;stroke-linecap:round;stroke-linejoin:round;stroke-miterlimit:4;stroke-opacity:1;stroke-dasharray:none;stroke-dashoffset:0;display:inline"
       d="m 1125.0724,605.58447 5.7755,8.82427 0.8807,18.49517 -3.0825,3.96325 0.8807,4.84398 8.8073,6.60542 0.4403,7.04578 6.1651,7.04578 4.4036,14.97229 4.4036,6.60542 -0.8807,14.09156 -6.6054,11.4494 0.8807,23.33915 -6.6054,7.9265 2.2018,12.77048 6.6054,10.12831 3.9632,2.64217 3.9633,22.45843 -1.3211,16.29337 7.4862,28.62348 -1.7615,10.12831 -6.6054,19.81626 -6.6054,11.4494 -1.3211,23.33915 -7.4862,0.88072 -1.321,-3.52289 3.5228,-13.6512 0.4404,-8.36687 -1.7614,-7.9265 5.7247,-14.97229 -6.1651,-4.40361 -11.009,-2.64217 -9.688,10.12831 -3.5229,8.80723 -2.6421,5.7247 0,3.08253 5.7247,0.44036 -0.4404,3.96325 -1.3211,3.08253 -1.7614,14.53192 3.0825,4.40362 5.2843,2.64217 0,12.33011 -7.4861,6.16506 -1.7615,8.36687 -4.4036,4.40361 -2.6421,12.77048 -6.6055,6.60542 -2.6421,12.77048 c 0,0 0.4403,6.60542 0,8.36686 -0.4404,1.76145 -11.0091,30.3849 -11.0091,30.3849 l -4.4036,6.6054 -0.4403,13.6512 8.8072,8.3669 -0.8807,3.9632 -7.0458,0.8808 -1.7615,7.4861 -6.6054,0 -3.9632,4.4036 0,4.844 -6.6054,-2.6422 -1.3211,-7.4861 -16.7338,3.9632 -4.4036,7.4862 -12.7705,8.3668 0.4404,4.844 -4.844,4.4036 -2.9822,8.1053"
       id="path3837"
       inkscape:connector-curvature="0"
       sodipodi:nodetypes="cccccccccccccccccccccccccccccccccccccccccccccccccccccccccccccccccccc" />
    <path
       style="fill:none;stroke:#646464;stroke-width:1;stroke-linecap:round;stroke-linejoin:round;stroke-miterlimit:4;stroke-opacity:1;stroke-dasharray:none;stroke-dashoffset:0;display:inline"
       d="m 1132.4829,1198.79 -5.5982,-15.4344 0.4403,-5.7247 -1.3211,-5.2844 0,-6.6054 -8.8072,-1.3211 0,-11.4494 2.6422,-6.165 -3.9633,-4.4036 -0.4403,-3.9633 -2.6422,0 -1.7614,-4.844 8.8072,-8.8072 -5.2844,-7.9265 -2.2018,-10.1283 6.1651,-6.1651 1.7614,-4.4036 0.4404,-25.9813 -2.6422,-2.2018 0,-3.0825 2.6422,-1.3211 -2.6422,-10.1283 12.7705,-4.4037 8.8072,-0.8807 0,-8.8072 6.6055,-3.0825 8.8072,-1.3211 3.5229,-4.4036 16.2933,-0.8808 0,-4.4036 9.2476,-1.321 6.1651,7.4861 -3.5229,4.844 7.4861,1.7614 2.6422,10.1283 14.9723,15.4127 1.3211,9.6879 3.0825,4.844 4.844,0.4404 1.7614,5.2843 5.7247,1.3211 0.4404,5.2843 4.0374,4.1289"
       id="path3839"
       inkscape:connector-curvature="0"
       sodipodi:nodetypes="ccccccccccccccccccccccccccccccccccccccccccc" />
    <path
       style="fill:none;stroke:#646464;stroke-width:1;stroke-linecap:round;stroke-linejoin:round;stroke-miterlimit:4;stroke-opacity:1;stroke-dasharray:none;stroke-dashoffset:0;display:inline"
       d="m 1194.3907,1038.0756 2.0711,-14.1308 6.165,-10.1284 -0.4403,-21.13727 -3.0826,-7.92651 -6.165,-5.7247 -11.0091,-17.17409 1.7615,-11.00903 -3.5229,-8.80723 3.5229,-14.09156 5.7247,-2.20181 -0.4404,-8.80722 5.7247,-4.84398 -2.6422,-9.68795 3.5229,-7.9265 0.4404,-10.12831 -2.6422,-3.52289 0.8807,-10.12832 -12.7704,-18.93553 -2.2018,-11.88976 3.9632,-14.97228 -3.0825,-11.88976 -2.6422,-5.7247 -0.4403,-18.05481 -3.5229,-6.60542 4.8439,-10.56867 3.9633,-2.64217 3.0825,-12.77048 -1.7614,-3.96325 3.0825,-4.40362 -1.3211,-7.9265 5.7247,-10.56867 2.6422,-6.16506 7.0458,-3.52289 3.0825,-7.04578 -2.2018,-4.40362 -7.4862,-2.2018 6.6055,-10.56868 3.6406,-7.54282"
       id="path3841"
       inkscape:connector-curvature="0"
       sodipodi:nodetypes="ccccccccccccccccccccccccccccccccccccccc" />
    <path
       style="fill:none;stroke:#646464;stroke-width:1;stroke-linecap:round;stroke-linejoin:round;stroke-miterlimit:4;stroke-opacity:1;stroke-dasharray:none;stroke-dashoffset:0;display:inline"
       d="m 1333.2969,938.06044 3.5747,5.57722 3.2439,12.56991 -0.4055,10.13704 -3.6493,5.27125 5.2712,3.64933 0.811,11.35348 7.7041,7.29866 -0.5799,9.91117"
       id="path3873"
       inkscape:connector-curvature="0"
       sodipodi:nodetypes="ccccccccc" />
    <path
       style="fill:none;stroke:#646464;stroke-width:1;stroke-linecap:round;stroke-linejoin:round;stroke-miterlimit:4;stroke-opacity:1;stroke-dasharray:none;stroke-dashoffset:0;display:inline"
       d="m 1386.8179,860.20995 1.1444,5.16983 -10.948,12.56992 -4.0548,12.9754 2.4328,0.81096 12.9754,-5.67674 4.4603,-4.46029 7.2987,-2.02741 0.811,7.70415 -3.6494,2.0274 -1.2164,8.51511 3.2438,13.38088 2.8384,2.0274 -0.4055,10.54252 -7.2986,4.05481 -4.0549,1.21644 0,2.83837 2.8384,5.27126 -1.2164,5.27125 4.8657,7.29866 2.4329,-7.29866 10.1371,-0.40548 3.2438,-4.05481 13.7864,-0.40548 9.7315,-8.92059 4.4603,-5.27126 5.6768,-0.40548 7.2986,-4.86577 6.0822,-0.81096 7.7042,6.4877 1.2164,6.08221 6.0822,5.27126 1.2165,7.70414 -2.4329,2.43289 0.4055,13.38088 6.4877,7.70415 -1.0081,8.60377"
       id="path3875"
       inkscape:connector-curvature="0"
       sodipodi:nodetypes="ccccccccccccccccccccccccccccccccccccc" />
  </g>
  <g
     inkscape:groupmode="layer"
     id="layer6"
     inkscape:label="lake"
     style="display:inline"
     transform="translate(0,672.63782)"
     sodipodi:insensitive="true">
    <path
       style="fill:#c9ecff;fill-opacity:1;fill-rule:evenodd;stroke:#0978ab;stroke-width:1;stroke-linecap:round;stroke-linejoin:round;stroke-miterlimit:4;stroke-opacity:1;stroke-dasharray:none;stroke-dashoffset:0"
       d="m 1069.962,-71.96413 -4.83,-3.282752 -10.1053,-1.496531 -8.4798,1.465294 -9.4425,-0.867883 -9.5586,7.168924 3.5845,3.584462 0,4.779283 8.9612,2.987052 7.1689,-2.987052 9.5585,1.792231 3.5845,-2.389641 2.3896,-5.974104 5.2143,-1.267955 z"
       id="path6048"
       inkscape:connector-curvature="0"
       sodipodi:nodetypes="ccccccccccccccc" />
    <path
       style="fill:#c9ecff;fill-opacity:1;fill-rule:evenodd;stroke:#0978ab;stroke-width:1;stroke-linecap:round;stroke-linejoin:round;stroke-miterlimit:4;stroke-opacity:1;stroke-dasharray:none;stroke-dashoffset:0"
       d="m 1020.8356,-64.483679 -9.1083,7.766335 -1.5064,9.247039 3.896,4.649164 5.0737,-0.605959 5.3767,-10.753386 -0.6059,-6.432847 z"
       id="path6050"
       inkscape:connector-curvature="0"
       sodipodi:nodetypes="cccccccc" />
    <path
       style="fill:#c9ecff;fill-opacity:1;fill-rule:evenodd;stroke:#0978ab;stroke-width:1;stroke-linecap:round;stroke-linejoin:round;stroke-miterlimit:4;stroke-opacity:1;stroke-dasharray:none;stroke-dashoffset:0"
       d="m 1104.6118,-46.275484 17.9308,3.307127 0.5889,7.44626 -4.1819,9.558566 -7.1689,5.974103 -10.7534,-3.584462 1.7922,-10.155976 -0.1643,-6.865945 z"
       id="path6052"
       inkscape:connector-curvature="0"
       sodipodi:nodetypes="ccccccccc" />
    <path
       style="fill:#c9ecff;fill-opacity:1;fill-rule:evenodd;stroke:#0978ab;stroke-width:1;stroke-linecap:round;stroke-linejoin:round;stroke-miterlimit:4;stroke-opacity:1;stroke-dasharray:none;stroke-dashoffset:0"
       d="m 1403.9144,-93.470903 -5.9741,0.59741 -1.7923,4.779283 1.7923,5.974104 -5.9741,10.753387 -5.9741,7.168924 -5.3767,11.350797 -5.3767,3.584462 -5.3767,9.558566 -4.1819,0 -4.1819,7.168925 -3.5844,1.792231 1.1948,1.792231 8.9611,5.376693 7.7664,7.168924 19.7145,-9.558565 2.3897,-9.558566 7.7663,-5.974104 -1.1948,-3.584462 7.7663,-13.740439 1.7922,-10.753386 -2.3896,-5.376694 0,-6.571514 z"
       id="path6054"
       inkscape:connector-curvature="0" />
    <path
       style="fill:#c9ecff;fill-opacity:1;fill-rule:evenodd;stroke:#0978ab;stroke-width:1;stroke-linecap:round;stroke-linejoin:round;stroke-miterlimit:4;stroke-opacity:1;stroke-dasharray:none;stroke-dashoffset:0"
       d="m 1126.9762,510.53462 0.3139,12.24291 2.5114,1.56961 1.5696,-2.82529 0.3139,-2.82529 z"
       id="path6140"
       inkscape:connector-curvature="0" />
    <path
       style="fill:#c9ecff;fill-opacity:1;fill-rule:evenodd;stroke:#0978ab;stroke-width:1;stroke-linecap:round;stroke-linejoin:round;stroke-miterlimit:4;stroke-opacity:1;stroke-dasharray:none;stroke-dashoffset:0"
       d="m 1134.6031,537.4117 -10.1382,0.12012 -0.314,5.02273 -2.1974,2.82529 0.3139,3.45313 -2.1974,3.76705 0.9417,6.59234 4.081,2.51137 0.9418,-2.19744 5.0227,3.76705 4.081,7.84802 0,5.02274 5.9645,5.96449 5.6505,0 5.0228,5.02274 4.3949,0 -0.6279,-4.39489 -8.7898,-8.47587 -6.6469,-6.73973 -4.9954,-10.64603 -1.2012,-10.5532 z"
       id="path6142"
       inkscape:connector-curvature="0"
       sodipodi:nodetypes="cccccccccccccccccccccc" />
    <path
       style="fill:#c9ecff;fill-opacity:1;fill-rule:evenodd;stroke:#0978ab;stroke-width:1;stroke-linecap:round;stroke-linejoin:round;stroke-miterlimit:4;stroke-opacity:1;stroke-dasharray:none;stroke-dashoffset:0"
       d="m 1148.3228,517.12696 -0.9417,5.33665 -4.3949,-1.5696 -5.0227,2.82529 -0.314,4.39489 -5.0227,-1.88353 -3.4531,4.3949 -4.081,1.25568 0,2.51137 9.6387,-0.21294 2.1974,-2.86072 3.9965,-4.11886 2.6887,-1.28335 7.5341,-1.5696 4.081,-2.19745 0,-2.82529 z"
       id="path6144"
       inkscape:connector-curvature="0"
       sodipodi:nodetypes="ccccccccccccccccc" />
    <path
       style="fill:#c9ebff;fill-opacity:1;stroke:#0978ab;stroke-width:1;stroke-linecap:round;stroke-linejoin:round;stroke-miterlimit:4;stroke-opacity:1;stroke-dasharray:none;stroke-dashoffset:0;display:inline"
       d="m 359.17626,-63.43693 5.64644,4.077984 2.82322,0.313691 1.56845,-4.705366 -2.50952,-8.155967 0.94107,-2.509529 2.82322,6.273821 2.19584,6.901204 -3.13691,5.019057 -5.33275,1.568455 z"
       id="path6396"
       inkscape:connector-curvature="0" />
  </g>
  <g
     inkscape:groupmode="layer"
     id="layer11"
     inkscape:label="coastline"
     transform="translate(0,672.63782)"
     style="display:inline"
     sodipodi:insensitive="true">
    <path
       inkscape:connector-curvature="0"
       id="path6268"
       d="m 1443.6443,436.92046 21.1492,4.22984 4.2299,3.80685 0.8459,4.22984 -3.8068,8.45968 -11.8436,7.61371 -5.9217,1.69194 -6.3448,8.45968 -10.5746,0 -6.3448,0 -3.3838,-2.96089 -2.9609,0.84597 -2.9609,-5.07581 0.846,-2.5379 -2.9609,-3.80686 5.0758,-1.69193 2.9609,1.26895 2.9609,-4.22984 3.3838,2.96089 4.6529,-2.96089 3.3838,0 2.5379,-2.11492 0.846,-12.68952 z"
       style="fill:none;stroke:#0978ab;stroke-width:1;stroke-linecap:round;stroke-linejoin:round;stroke-miterlimit:4;stroke-opacity:1;stroke-dasharray:none;stroke-dashoffset:0;display:inline" />
    <path
       sodipodi:nodetypes="ccccccccccccccc"
       inkscape:connector-curvature="0"
       id="path6270"
       d="m 1459.7177,467.3753 -6.3447,2.11492 -1.269,2.11492 -9.7286,5.4988 -2.1149,3.80685 -9.3057,2.11492 -4.2298,8.45968 2.1149,3.80686 7.1907,2.11492 0.423,-3.38388 3.3839,-0.84596 1.2689,-3.38387 2.9609,-0.42299 11.8436,-10.5746 z"
       style="fill:none;stroke:#0978ab;stroke-width:1;stroke-linecap:round;stroke-linejoin:round;stroke-miterlimit:4;stroke-opacity:1;stroke-dasharray:none;stroke-dashoffset:0;display:inline" />
    <path
       inkscape:connector-curvature="0"
       id="path6272"
       d="m 1490.5956,449.18699 -4.2299,13.11251 -4.2298,0 -5.4988,3.38387 -12.6895,15.65041 0.8459,2.96088 -2.5379,0 -3.8068,4.65283 0.423,1.69193 -2.5379,0 -6.3448,7.19073 2.5379,4.22984 -10.1516,5.07581 -3.3839,3.38387 -0.423,4.22984 5.0758,3.38387 -6.3447,4.65283 2.1149,1.69193 6.3448,-0.84597 -0.846,2.11492 3.8068,0.84597 -5.4987,10.15162 0.8459,5.0758 17.7653,-2.11491 5.4988,4.22983 1.269,5.07581 5.0758,-2.11492 7.1907,8.45968 4.2299,1.26895 -1.269,8.45968 10.1516,4.65283 4.2299,-2.11492 6.3447,7.61371 10.1516,0 11.8436,8.0367 5.0758,6.34476 -1.2689,4.65282 4.6528,0.84597 0.423,9.30564 8.8826,-3.38387 5.4988,1.69194 8.0367,1.26895 6.3448,4.65282 7.6137,0 3.8068,4.22984 5.0758,0.42299 5.0759,7.19073 7.1907,-1.69194 4.6528,1.69194 4.6528,5.49879 7.6137,0.84597 2.115,-2.11492 -1.269,-1.69194 2.1149,0.42298 2.5379,-1.26895 -0.423,-3.80685 4.2299,-0.84597 2.9609,-4.22984 7.6137,-1.26895 -0.846,-3.38388 1.269,-1.26895 -1.692,-6.76774 2.115,-4.65283 -0.423,-4.65282 3.3838,-0.84597 1.269,-6.34476 4.6528,0 2.5379,-3.38387 0,-2.5379 4.6528,-5.49879 5.9218,2.96088 4.2299,1.26896 1.6919,2.96088 2.1149,-3.80685 -5.9218,-6.34476 2.115,-5.07581 -5.9218,-8.88266 1.6919,-3.38388 -2.1149,-3.80685 0,-2.53791 -8.4597,-11.84355 -4.2298,-1.26895 -1.269,-5.49879 -13.1125,-11.42057 -5.0758,-2.5379 -2.1149,-3.38387 -0.423,-8.0367 -5.4988,-2.5379 -0.8459,-3.38388 -3.8069,-4.65282 -2.1149,-0.84597 -2.1149,-15.22742 -6.7678,-11.42057 -5.4988,-8.45968 -10.1516,-6.34476 -16.0734,-0.42298 -9.7286,4.22984 -10.9976,1.69193 -14.3815,0.42299 -14.8044,-3.38387 -11.8435,-3.80686 z"
       style="fill:none;stroke:#0978ab;stroke-width:1;stroke-linecap:round;stroke-linejoin:round;stroke-miterlimit:4;stroke-opacity:1;stroke-dasharray:none;stroke-dashoffset:0;display:inline" />
    <path
       inkscape:connector-curvature="0"
       id="path6274"
       d="m 305.54973,-249.64244 14.51012,-3.34849 16.18437,1.11616 0.27904,2.79041 -5.58081,5.30178 -8.09219,1.3952 -6.69698,-3.62753 -10.60355,-1.11616 z"
       style="fill:none;stroke:#0978ab;stroke-width:1;stroke-linecap:round;stroke-linejoin:round;stroke-miterlimit:4;stroke-opacity:1;stroke-dasharray:none;stroke-dashoffset:0;display:inline" />
    <path
       inkscape:connector-curvature="0"
       id="path6278"
       d="m 1176.5757,513.04595 5.9645,-2.51136 3.1392,-2.82529 4.7089,0.62784 5.6505,5.02274 0.9418,4.39489 -2.5114,0.94176 -2.1974,-1.5696 -1.2557,-1.88353 -2.1974,1.88353 1.8835,1.88352 1.8835,0 0.3139,2.19745 -3.1392,0 0.3139,1.88352 -3.767,4.08098 1.5696,0.31392 3.1392,-3.13921 2.5114,0.62784 2.5113,-2.19745 -0.6278,-2.51136 2.8253,-3.45313 3.4531,0.31392 0,1.88352 -2.1974,3.13921 0.3139,3.13921 -4.3949,1.25569 -0.6279,4.08097 -5.6505,5.02273 -4.7088,-0.31392 -2.5114,-3.45313 -2.5114,-1.88352 -3.4531,0 -0.3139,3.13921 3.1392,2.51136 3.1392,0 2.8253,2.82529 -1.5696,2.82529 -3.1392,0.31392 -1.2557,4.08097 -1.8835,0.62785 -6.2785,-3.13921 -1.5696,0 -5.3366,-2.82529 1.8835,-10.04547 2.1974,-6.59234 1.8836,-4.3949 3.4531,-1.5696 z"
       style="fill:none;stroke:#0978ab;stroke-width:1;stroke-linecap:round;stroke-linejoin:round;stroke-miterlimit:4;stroke-opacity:1;stroke-dasharray:none;stroke-dashoffset:0;display:inline" />
    <path
       id="path6313"
       d="m 0.59375,363.49998 6,1.125 12.0625,3.9063 17.09375,8.1562 17.46875,3.5 13.625,4.6563 15.90625,6.5937 7.40625,3.9063 13.59375,8.9375 12.4375,9.6875 16.3125,15.1562 7.75,10.125 7.40625,13.5938 1.53125,9.3125 2.71875,5.0625 -0.375,5.8125 3.125,7 0,7.375 -4.6875,11.2812 -2.3125,7 -7,6.9688 -14,7.4062 -3.875,0 -1.9375,3.0938 -7.78125,2.7187 -0.375,3.125 1.9375,5.8125 6.59375,1.9375 4.65625,2.3438 8.9375,1.5625 9.34375,3.875 3.875,-1.1563 12.4375,0.375 10.5,3.9063 2.71875,-1.1875 2.3125,0.7812 8.9375,0 7,-1.9375 7.375,-1.5625 6.625,-0.375 3.875,1.9375 3.125,0 3.875,1.5625 8.53125,-1.1875 8.1875,1.9688 10.09375,1.9375 10.09375,3.0937 14.78125,4.6563 7.75,0.4062 5.84375,4.2813 5.4375,2.7187 10.09375,6.5938 11.65625,5.0625 28.375,4.6562 10.875,0.7813 7.375,-2.3438 2.34375,0 7.75,-3.0937 21.375,-4.2813 7.375,-4.6562 14,-6.2188 0,-2.7187 2.71875,-4.2813 6.59375,-9.7187 -0.375,-9.3125 3.09375,-8.1563 6.21875,-11.6562 1.5625,-6.625 0,-7.7813 -8.9375,-10.4687 0.40625,-7.375 -10.90625,-15.1563 -2.3125,0 -4.65625,-8.1562 -8.5625,-9.7188 -5.8125,-12.8437 -7.40625,-5.4375 -13.96875,0.4062 -4.65625,2.3125 -7,0.4063 -6.21875,-3.9063 -9.34375,-0.375 -6.59375,-5.0625 -7.375,0.4063 -7.375,-3.5 -3.5,-5.8438 -3.125,-4.25 -1.5625,-6.2187 -11.25,-1.1875 -9.71875,-5.4375 -3.09375,-7.75 -3.125,-2.3438 -2.3125,-5.4375 -4.6875,0 -1.53125,-0.375 -5.0625,0 -8.5625,9.6875 -0.375,5.4375 -3.09375,3.5 -4.6875,7.7813 -6.21875,-1.1563 -4.65625,1.9375 -5.4375,-3.875 -5.0625,-4.2812 -2.3125,-5.4375 0.375,-6.2188 -6.96875,-11.2812 -5.46875,-5.0313 -5.8125,-4.6875 -2.34375,-4.6562 -1.53125,-7 -1.1875,-5.8125 -2.71875,-8.9376 -4.25,-5.0625 -4.28125,-6.5937 -3.125,-7 0,-7.375 0,-9.71875 -3.875,-6.59375 -3.5,-6.21875 -0.375,-7.375 0.75,-7 2.34375,-9.34375 6.21875,-5.4375 -0.375,-3.09375 0.375,-2.34375 -0.375,-2.3125 1.15625,-3.5 -5.0625,-7.40625 0.40625,-2.71875 -2.71875,-4.65625 -5.0625,-0.375 -0.375,-2.34375 -1.1875,-0.78125 -0.375,-2.3125 -1.15625,-3.5 -0.78125,-4.65625 0.78125,-4.28125 1.15625,-4.65625 0,-8.15625 3.09375,-11.65625 -1.9375,-7.40625 -8.15625,-8.9375 -6.21875,-3.875 -3.09375,-0.375 -1.96875,2.71875 0.78125,8.53125 2.71875,5.0625 0,7 1.1875,10.09375 1.9375,8.9375 -2.34375,3.875 0,4.28125 -1.15625,2.3125 0,8.5625 1.15625,9.3125 -2.71875,10.125 -2.3125,3.5 -4.28125,10.46875 -0.40625,5.4375 -4.65625,7.40625 -9.71875,2.3125 0,2.71875 -1.9375,-2.3125 -7,-3.90625 -2.3125,2.71875 -0.78125,-3.875 -3.125,-2.34375 -1.53125,-3.09375 -0.78125,-5.0625 1.9375,-1.9375 0,-4.28125 3.875,-6.21875 -1.15625,-2.71875 3.125,0.40625 1.15625,-9.34375 -1.5625,-3.09375 0.78125,-1.15625 3.875,-0.40625 1.5625,-4.28125 -1.9375,-1.9375 -1.5625,-2.71875 3.875,2.71875 0.78125,-3.09375 2.34375,0 0.78125,-2.71875 -1.5625,-4.65625 6.59375,-8.9375 -2.3125,-3.90625 -1.5625,-0.375 -3.875,-3.875 -3.5,1.15625 -5.84375,-4.65625 0,-4.28125 2.71875,-4.28125 -2.3125,-3.09375 0,-3.5 -5.84375,-8.15625 -5.4375,-3.5 -2.71875,-8.15625 -2.71875,-2.34375 -1.9375,-7.78125 -0.78125,-1.9375 0,-7.375 1.15625,-11.28125 5.84375,-13.96875 0,-9.71875 2.34375,-5.0625 0.75,-10.46875 4.28125,-10.499997 -0.78125,-2.34375 0.78125,-11.25 -0.78125,-0.40625 1.1875,-10.875 3.09375,-8.15625 4.65625,-7.375 2.34375,-8.15625 -3.5,-3.5 -0.375,-4.65625 3.46875,-10.5 5.4375,-10.5 -0.75,-3.8750004 -0.40625,-5.4375 -1.5625,-2.71874998 2.71875,-12.43749962 0.40625,-10.5 5.8125,-16.3125 9.34375,-13.21875 8.53125,-17.09375 5.84375,-8.53125 0.78125,-5.84375 -1.5625,-10.09375 -4.65625,-7.781253 0.375,-13.96875 -0.78125,-2.34375 -3.5,2.71875 -2.3125,-0.78125 0,-3.09375 3.5,-3.90625 -0.40625,-4.65625 2.34375,-4.65625 0.375,-3.875 7,-10.90625 0.40625,-2.71875 3.46875,-5.4375 1.5625,-12.03125 3.5,-8.15625 4.65625,-6.625 -1.53125,-10.46875 1.15625,-3.125 -1.5625,0 1.5625,-5.03125 -1.5625,-4.6875 0,-6.59375 -1.15625,-4.65625 1.5625,-6.59375 6.59375,-3.5 0.78125,-5.0625 5.4375,-10.09375 5.4375,-9.34375 0.78125,-10.09375 1.5625,-3.875 -0.40625,-2.34375 4.65625,-4.65625 4.6875,-7.375 3.46875,-0.78125 1.96875,-3.125 1.15625,-10.09375 -1.15625,-6.21875 0.375,-2.71875 -1.9375,-5.0625 2.71875,-7.75 2.34375,-1.1875 1.53125,-4.25 -0.78125,-4.6875 -2.71875,-4.25 0,-4.28125 -6.59375,-4.28125 0.78125,-4.65625 -1.5625,-3.5 3.5,-6.59375 0,-7.40625 1.9375,-5.8125 -0.78125,-5.84375 -4.65625,-8.90625 0,-16.71875 -4.28125,-13.21875 1.1875,-5.4375 -0.40625,-4.28125 1.1875,-5.8125 0.75,-5.0625 -1.15625,-3.5 1.15625,-2.71875 -2.3125,-8.15625 -2.34375,-6.21875 0.40625,-5.4375 2.3125,-4.28125 5.84375,-6.59375 11.25,-3.875 2.34375,-8.15625 4.28125,-4.6875 24.09375,-10.09375 2.3125,-5.4375 -1.5625,-3.5 0.78125,-3.875 -3.09375,-3.90625 1.5625,-6.96875 -2.34375,-7 -2.71875,0 -1.9375,-3.5 3.5,-4.28125 4.65625,-0.375 0.78125,-3.90625 -1.5625,-3.875 -5.84375,-1.15625 1.1875,-1.5625 -2.34375,-2.34375 2.71875,0 4.28125,-5.8125 -0.375,-3.875 2.71875,-3.125 3.09375,-1.5625 -3.5,-1.53125 -1.15625,-5.4375 1.9375,-1.1875 -0.375,-5.4375 -4.6875,-5.8125 -1.53125,-5.4375 -2.71875,-1.1875 0.375,-4.25 -4.28125,-1.1875 -0.78125,-9.3125 -1.9375,0 0,2.71875 -3.09375,2.71875 -1.9375,-1.9375 1.9375,-3.5 -2.34375,-3.5 -2.71875,0.78125 -3.09375,-2.71875 0.375,-2.71875 -0.78125,-4.28125 -5.03125,-3.875 -5.0625,5.4375 -3.875,-1.1875 -2.34375,-4.25 -8.15625,-1.5625 -8.5625,-10.875 -4.25,0.375 -6.21875,-9.71875 -4.6875,-1.15625 -9.3125,2.71875 -4.28125,-3.5 -3.875,-6.59375 -8.15625,-3.125 -1.9375,-5.03125 -5.0625,-0.40625 -0.375,-3.5 3.09375,-1.15625 -0.375,-1.9375 -3.5,0.78125 -5.0625,-1.9375 -5.4375,-2.71875 -1.15625,1.9375 1.53125,3.875 6.625,1.5625 1.9375,0.375 0,3.125 -5.0625,0.375 -4.25,-3.5 -9.71875,0.78125 -6.21875,-1.9375 -3.5,1.15625 0,2.34375 -11.65625,0 -4.65625,2.3125 -13.21875,0.78125 -3.875,-1.9375 -4.6875,-3.5 -3.875,-7 -3.875,-2.3125 -7.78125,0 -5.8125,2.71875 -6.625,-1.5625 -4.28125,-3.9375"
       style="fill:none;stroke:#0978ab;stroke-width:1;stroke-linecap:round;stroke-linejoin:round;stroke-miterlimit:4;stroke-opacity:1;stroke-dasharray:none;stroke-dashoffset:0;display:inline"
       inkscape:connector-curvature="0"
       sodipodi:nodetypes="ccccccccccccccccccccccccccccccccccccccccccccccccccccccccccccccccccccccccccccccccccccccccccccccccccccccccccccccccccccccccccccccccccccccccccccccccccccccccccccccccccccccccccccccccccccccccccccccccccccccccccccccccccccccccccccccccccccccccccccccccccccccccccccccccccccccccccccccccccccccccccccccccccccccccccccccccccccccccccccccccccccccccccccccccccccccccccccccccccccccccccccccccccccccccccccccccc" />
    <path
       id="path6315"
       d="m 2103.4063,534.18748 -10.0937,-8.375 -3.125,-5.7812 -3.5625,-2.2188 -3.0938,2.6563 0,4.9062 -3.5623,2.2188 -7.5627,-4.4375 -6.6873,0.4375 -2.6564,-1.3438 0,-6.2187 -1.7813,0 -0.875,7.125 2.2188,3.0937 -7.5625,5.7813 -5.7813,5.3437 -7.5625,0.4375 -9.3438,9.7813 1.7811,5.7812 -4.9061,8.9063 -6.2189,4.4375 -2.6561,0 -2.6875,-1.3125 -11.0937,0.4375 -0.9063,3.5625 -0.4375,2.6562 -3.5625,3.125 -6.6564,-3.125 -6.25,-2.2187 -1.3124,-2.2188 0,-3.5625 -7.125,-5.7812 -4.4376,-2.6875 4,-4.875 -0.9061,-3.125 4,-4 -1.3125,-4 -3.125,-1.7813 -3.5625,0.4375 2.2188,5.3438 -9.3125,13.7812 1.75,4 -3.5312,-1.75 -4.9061,0.4375 -2.6564,-4 3.0937,-4.9062 -5.3125,-6.6563 -2.25,0 -2.2188,-3.5625 -9.7812,-2.6875 -3.0938,-4.4375 0,-4 5.7811,-9.3437 0,-4.875 -4.0311,-4.9063 -1.3125,-2.6562 -3.125,3.0937 -2.6564,4 -3.5624,-2.2187 -1.3439,-3.5625 -2.6561,-3.0938 3e-4,0 -11.125,6.6563 -1.7815,-0.4375 -4.875,4.9062 -1.7813,5.3125 -0.4687,9.3438 -2.2185,1.3437 -7.094,3.125 -3.5625,6.6563 -5.3435,0 -0.9065,1.7812 1.7815,4.4375 3.5624,3.125 -2.6562,8.875 1.3438,7.125 3.5312,5.3438 2.6875,1.3437 0.4375,11.5625 -2.2188,6.2188 -2.2187,5.3437 3.5625,-0.4687 -2.6875,7.5625 5.3437,-2.6563 2.2188,2.6563 -2.6562,3.125 4.4374,2.2187 0,3.5625 -3.5624,5.3438 0,2.6562 4.9062,-4 4,0 0.4375,2.6563 2.6563,0 2.25,-2.2188 6.2187,0.9063 -0.4375,4 -5.3438,4.875 1.7813,5.3437 4.4375,1.3438 4,-4.4375 7.125,1.75 6.6562,-3.5313 2.2188,-3.5625 4.9062,0.4375 5.3438,6.6563 4.875,3.125 3.125,5.3437 2.2188,-0.4375 2.6562,-5.3437 2.6875,-0.4375 6.2187,8 5.3438,-1.3438 6.2188,-1.3437 4,6.6875 -0.4376,4 6.6563,2.6562 4.4687,0.9063 -1.3437,4.875 4.4375,-0.4375 4.4688,0.4375 2.2187,-7.5625 -1.3437,-2.6563 7.5624,-4.4375 7.5626,0 9.3437,8 4.875,2.2188 3.125,4.4375 -2.6563,4 1.3126,4 4.9062,0.4687 1.7812,4 3.0937,0.875 9.3439,7.125 -2.2189,4.4375 -0.4375,2.6875 6.6564,1.7813 5.7811,-0.9063 1.7812,2.6563 -1.7812,3.125 1.3439,7.125 9.3436,-2.6875 1.7814,5.3437 3.0936,1.3438 1.7814,-1.7813 4.4686,4.9063 -1.7813,3.5312 3.5627,3.5625 5.3123,-4.4375 3.125,2.6563 0,4 -4,5.3437 7.875,0.3438"
       style="fill:none;stroke:#0978ab;stroke-width:1;stroke-linecap:round;stroke-linejoin:round;stroke-miterlimit:4;stroke-opacity:1;stroke-dasharray:none;stroke-dashoffset:0;display:inline"
       inkscape:connector-curvature="0"
       sodipodi:nodetypes="ccccccccccccccccccccccccccccccccccccccccccccccccccccccccccccccccccccccccccccccccccccccccccccccccccccccccccccccccccccccccccccccccccccccccccccccccccccccccc" />
    <path
       inkscape:connector-curvature="0"
       id="path6317"
       d="m 1996.3541,500.01828 4.0027,-0.4448 3.5578,5.3367 -0.8894,3.1131 -3.1131,0 z"
       style="fill:none;stroke:#0978ab;stroke-width:1;stroke-linecap:round;stroke-linejoin:round;stroke-miterlimit:4;stroke-opacity:1;stroke-dasharray:none;stroke-dashoffset:0;display:inline" />
    <path
       inkscape:connector-curvature="0"
       id="path6319"
       d="m 1983.4574,512.91518 3.5578,-3.1131 4.0025,0.8895 3.113,4.0025 0.4448,5.3366 -8.005,0 z"
       style="fill:none;stroke:#0978ab;stroke-width:1;stroke-linecap:round;stroke-linejoin:round;stroke-miterlimit:4;stroke-opacity:1;stroke-dasharray:none;stroke-dashoffset:0;display:inline" />
    <path
       inkscape:connector-curvature="0"
       id="path6321"
       d="m 1963.445,519.58598 6.2261,0.8895 2.2236,5.3366 -0.4448,12.4522 -9.7838,-4.4472 -1.7789,-5.7814 -1.3342,-3.113 z"
       style="fill:none;stroke:#0978ab;stroke-width:1;stroke-linecap:round;stroke-linejoin:round;stroke-miterlimit:4;stroke-opacity:1;stroke-dasharray:none;stroke-dashoffset:0;display:inline" />
    <path
       inkscape:connector-curvature="0"
       id="path6323"
       d="m 2007.9171,514.69408 5.3367,1.3341 2.2236,7.5603 -3.1131,3.1131 0,6.226 10.2285,13.3417 -0.4447,6.6708 2.6684,5.7814 -4.0026,-2.2236 -7.1156,-2.2236 -0.4447,-6.6708 -2.6685,-2.2237 -0.4448,-4.0024 -3.113,0 -5.7814,1.3341 -3.1131,1.3342 -0.8894,-2.2236 5.7814,-5.3367 2.6683,-0.8894 2.2236,-4.4472 -2.6683,-2.6684 -5.3367,-1.7788 1.7789,-2.6684 2.6683,-0.8894 0,-4.892 z"
       style="fill:none;stroke:#0978ab;stroke-width:1;stroke-linecap:round;stroke-linejoin:round;stroke-miterlimit:4;stroke-opacity:1;stroke-dasharray:none;stroke-dashoffset:0;display:inline" />
    <path
       sodipodi:nodetypes="ccccccccccccccccccccccccccccccccccccccccccccccccccccccccccccccccccccccccccccccccccccccccccccccccccccccccccccccccccccccccccccccccccccccccccccccccccccsccccccccccccccccccccccccccccccccccccccccccccccccccccccsscccccccccccccccccccccccccccccccccccccccccccccccccccccccccccccccccccccccccccccccccccccccccccccccccccccccccccccccccccccccccsccccccccccccccccccccccccccccccccccccccccccccccccccccccccccccccccccccccccccscccccccccccccscccccccccccccccccccccccccccccccccccccccccccscccccccccccccccccccccccccccccccccccccccc"
       inkscape:connector-curvature="0"
       id="path6416"
       d="m 224.73688,-244.48019 8.50203,-4.81781 7.36842,0.2834 2.83401,-1.417 4.81781,1.417 33.1579,3.40081 5.10122,-4.81781 5.66802,1.1336 5.38461,5.10121 0,3.68422 3.40081,0 29.47369,40.52632 -0.8502,4.53441 -7.93522,7.36842 3.40081,0.85021 -2.26721,5.38461 3.68421,3.96762 4.25101,0.8502 4.81782,-0.8502 14.45344,-12.75304 0.5668,-3.40081 6.23482,-1.70041 5.95142,-7.08502 6.80162,-2.26721 3.68421,2.26721 0,7.08502 4.81782,4.53442 7.65182,-4.81782 -1.7004,-2.26721 -7.65183,0 -0.2834,-5.95141 4.81782,-3.11741 4.53441,-1.70041 4.25101,-1.1336 1.41701,-5.10122 14.45344,-4.25101 6.51822,1.1336 4.81782,4.25102 -1.98381,6.80162 -0.8502,8.21862 2.2672,3.40081 5.66802,-3.96761 1.70041,2.83401 3.96761,0.2834 1.417,-4.53442 8.50203,-2.834 -0.2834,-6.51822 2.83401,0 3.96761,-6.51822 2.26721,5.95141 12.75303,2.26721 4.81782,3.68421 1.7004,4.81782 5.10122,3.40081 4.25101,-3.11741 -0.2834,-4.81782 1.98381,-1.9838 4.53441,7.08502 4.53442,4.25101 3.68421,5.66802 5.10121,0.2834 3.11741,-1.98381 1.70041,2.26721 12.18623,3.68421 7.08503,-3.40081 13.60324,-1.1336 5.95141,2.26721 6.23482,5.66801 3.96762,1.13361 5.66801,5.38461 4.53442,-0.8502 0.5668,-4.25101 3.11741,-1.98381 0.5668,1.1336 -1.70041,3.40081 1.41701,3.11741 6.80162,2.26721 3.11741,-0.5668 13.88664,4.53441 17.28745,10.76924 6.80162,-1.70041 15.02025,5.38462 4.25101,0 38.54252,11.05263 4.25101,3.68421 7.93523,0.5668 1.7004,-0.8502 1.70041,0.2834 1.1336,4.25101 6.23482,4.25102 4.25101,-1.13361 4.53442,-5.66801 2.2672,0.8502 -1.417,3.40081 2.26721,2.83401 6.23481,0.8502 1.98381,-3.68421 1.70041,0 7.93522,4.81781 13.31984,2.55061 17.57085,-1.1336 20.40487,-8.50203 8.21862,-0.2834 7.65182,-3.11741 0,-1.9838 2.83401,-1.70041 3.96761,1.70041 22.38867,-4.25102 8.50203,3.40081 14.45344,-1.7004 28.34009,-0.5668 16.43725,-1.41701 7.93522,-4.81781 9.63563,-0.2834 4.81782,-3.11741 5.10121,-10.76923 11.90284,0 6.23482,-2.83401 3.68421,-7.65183 6.80162,-3.96761 8.78543,-7.36842 8.21862,-2.26721 4.25101,-3.96761 0,-4.25101 9.35223,-6.23482 2.83401,-6.80162 11.33604,-12.75304 5.38461,-2.26721 1.98381,-3.40081 11.05268,-9.06883 5.668,-1.7004 30.3239,-23.80567 2.2672,-3.68421 3.1174,0.8502 5.668,-0.2834 8.2186,-3.11741 31.7409,-17.28746 33.1579,-3.1174 24.0891,15.02024 4.5344,0.2834 30.3239,10.48583 13.8866,0.85021 18.7045,3.68421 11.336,5.66801 8.7855,8.21863 6.8016,1.417 12.753,7.08503 15.8705,1.1336 c 0,0 7.085,4.25101 8.2186,4.25101 1.1336,0 4.5344,0 4.5344,0 l 6.2348,3.96761 17.0041,-1.7004 4.5344,1.1336 4.5344,8.21863 5.1012,2.83401 8.2186,8.21862 12.4697,1.1336 10.7692,3.40081 5.3846,3.96762 9.0689,0.2834 15.0202,6.51822 14.17,7.93522 1.7004,3.96761 4.5345,1.70041 16.1538,2.26721 28.3401,10.48583 5.3846,7.93522 4.5344,3.96761 10.2025,8.21863 16.1538,2.55061 7.9352,10.76923 8.5021,1.7004 3.1174,1.98381 8.2186,14.17004 34.0081,17.004063 26.0729,14.45344 6.5182,5.95142 1.7004,5.38461 20.4049,19.27126 9.0688,12.75304 5.3846,13.60324 4.8178,2.55061 8.502,8.21863 2.5507,5.38461 13.8866,11.61943962 1.1336,7.93521998 10.7692,18.7044604 8.7855,4.25101 7.3684,8.78543 18.1376,1.1336 3.1174,4.25101 4.8179,-1.7004 7.6518,7.93522 7.085,1.41701 6.5182,3.68421 9.6357,9.63563 11.336,3.68421 1.9838,10.20243 11.336,11.05263 -1.1336,7.36843 2.2672,13.319837 -3.1174,2.2672 0.2834,3.11741 c 0,0 1.7004,2.26721 1.417,3.40081 -0.2834,1.13361 -5.668,11.90284 -6.8016,12.18624 -1.1336,0.2834 -5.9514,2.83401 -5.9514,2.83401 l 0,6.80162 -4.251,1.7004 -1.1336,6.23482 -7.085,4.53442 -2.2673,5.66801 -5.3846,3.11741 -15.0202,11.61944 -11.9029,3.68421 -8.502,6.51822 -22.3886,8.50203 -0.8503,8.21862 -4.251,6.23482 -15.8704,12.75304 -7.9352,22.67207 1.9838,4.25101 -2.5506,0.5668 -4.5345,-3.11741 -30.0404,15.02025 -1.7004,-2.83401 -32.3077,-11.61944 -9.0689,1.41701 -9.3522,-5.66802 -6.8016,-0.2834 -21.2551,7.93522 -6.2348,6.51822 -1.1336,7.65183 4.251,2.5506 3.1174,9.63563 0.2834,5.66802 -1.1336,0.5668 -1.9838,-3.96761 -4.251,1.70041 2.5506,3.96761 -1.1336,7.08502 -33.7247,11.61943 -10.7692,0 -11.0527,3.96762 -18.1376,19.83806 -22.3887,5.95142 -33.4413,1.7004 -8.2186,-2.26721 -24.3725,-0.8502 -9.919,2.55061 -11.9029,5.95142 -5.1012,4.81781 -4.5344,10.20243 -9.919,4.53442 -3.6842,2.834 -11.6195,6.23482 -6.2348,10.20243 -21.8219,12.75304 -1.1336,3.68421 -19.2712,18.42106 -21.8219,15.58705 -7.9352,11.33603 -0.2834,4.53442 4.5344,10.48583 -1.1336,6.51822 3.6842,11.61943 -2.834,15.02025 -4.251,5.10121 -10.2024,4.81782 -3.4008,0 -0.2834,-1.98381 -5.6681,-0.2834 -4.8178,5.38462 -9.919,5.10121 -7.085,0.2834 -3.4008,4.25102 3.9676,3.11741 -1.417,1.9838 -3.9676,-2.5506 -4.2511,1.7004 -5.3846,0 -2.5506,9.63563 -4.5344,1.7004 5.3846,1.70041 0,2.83401 -2.5506,7.93522 -5.9514,-0.2834 1.1336,-9.35223 -2.2672,-1.1336 -1.1336,-0.2834 -5.0674,1.81109 -3.4008,3.98646 -1.3088,3.40133 -0.4592,9.10207 1.7342,10.88934 4.251,8.50202 7.6518,7.65183 5.9514,5.66801 2.2672,5.66802 -0.2834,2.26721 6.5182,1.417 -3.1174,-3.40081 -3.4008,-11.05263 4.8178,-3.40081 -3.1174,-7.36842 0.5668,-7.08503 1.1336,-2.834 -0.8502,-3.68422 2.2672,-2.834 4.8178,0.2834 2.2673,9.63563 0.2834,14.45344 3.9676,16.43725 3.4008,1.70041 4.8178,12.18623 3.4008,-0.2834 0.5668,2.26721 -1.1336,1.7004 4.5344,1.41701 0,3.11741 -4.8178,-0.85021 -4.8178,3.96762 -1.1336,6.23482 -6.5182,6.23481 -3.4008,5.95142 -5.9515,12.18624 -15.8704,6.23482 c 0,0 -6.5182,5.10121 -7.9352,5.38461 -1.417,0.28341 -9.9191,1.98381 -9.9191,1.98381 l -13.6032,4.81782 -15.8705,1.7004 -19.5546,-1.1336 -26.9231,-0.85021 -18.4211,-2.2672 -28.9068,-9.91903 -1.1336,-5.95142 -2.5507,-4.25101 0.8503,-9.35223 5.3846,-9.06883 9.0688,-0.2834 4.8178,-4.25101 4.251,0.8502 6.5182,-4.25101 7.6519,-4.81782 1.9838,-10.20243 2.2672,-2.26721 1.417,0.56681 4.5344,-3.68422 8.7854,-0.8502 1.7004,-3.96761 4.5344,-0.8502 6.2349,-7.36843 9.0688,0 8.2186,1.41701 5.668,1.1336 4.8178,-4.81781 3.6843,-10.76923 0.2834,-11.61944 -3.9677,-5.10122 -7.6518,-5.95141 -7.6518,0 -1.1336,-3.96762 8.502,-0.5668 2.834,-10.48583 2.834,-9.35223 6.5183,-9.35223 -3.1175,-14.17004 -6.5182,-16.15385 -8.7854,-11.90283 -9.3522,-14.17005 -9.6357,-11.61943 -16.7206,-13.88664 -11.0526,-9.06883 -17.0041,-7.65183 -4.5344,-10.20243 -5.3846,-4.53441 -10.2025,-17.00405 -0.5668,-8.21863 -3.68417,-2.5506 -1.9838,0.2834 -9.91903,-13.60325 -23.23887,-20.68826 -25.78948,-21.82186 -15.87045,-10.20244 -12.75304,-11.33603 -7.93522,-3.11741 -2.26721,-0.5668 -0.2834,-4.25101 -1.70041,0 -0.5668,-4.81782 -17.85425,-17.57085 -6.23482,-3.11741 -4.53441,-7.08502 -9.35223,-5.95142 -6.23482,0 -0.8502,-3.40081 -5.38462,-2.55061 -11.61944,-12.18624 1.70041,-1.7004 -11.05263,-9.06883 -15.30365,-10.20243 -9.63563,-2.55061 c 0,0 -10.48583,-8.78542 -12.75304,-9.63563 -2.26721,-0.8502 -23.80567,-12.18623 -23.80567,-12.18623 l -7.08502,-0.2834 -39.10932,-14.45345 -15.02025,-3.40081 -11.33603,-0.5668 -6.51822,-4.81782 -2.26721,-0.2834 -1.7004,-6.51822 -5.38462,-1.417 -6.80162,-3.68421 -2.26721,-7.08502 -5.38461,-3.68421 -12.46964,-3.40081 c 0,0 -24.65588,-4.53442 -26.07288,-5.66802 -1.417,-1.13361 -18.98786,-5.66802 -18.98786,-5.66802 l -18.13765,-3.40081 -10.20243,-0.2834 -35.70851,0.8502 -26.35628,1.98381 -27.20649,6.51822 -19.83806,3.96761 -20.12146,-0.8502 -18.13765,-3.96761 -3.96761,-0.56681 -5.95142,0.2834 -10.48583,-2.2672 -7.08503,-4.53442 -1.417,-3.11741 -7.93522,-7.08502 1.1336,-2.83401 -0.5668,-0.8502 1.417,-3.11741 -14.17004,-15.020237 -8.78543,-5.10122 0,-2.55061 -12.18623,-12.75304 -1.70041,-8.21862 -6.51822,-5.95142 -14.73684,-5.38461 -10.76924,-9.06883 -0.2834,-6.23482 0,-6.80162 3.68421,-5.95142 -1.9838,-8.7854304 -11.90284,-9.06881998 -17.57085,-18.70445962 -7.08502,-4.81782 -0.2834,-2.5506 -7.93523,-5.38462 -2.26721,-6.51822 -1.7004,-3.11741 0,-5.10121 -8.21863,-12.46964 -4.53441,-9.06883 -7.36842,-4.81781 -3.96761,-8.50203 -8.21863,-7.93522 c 0,0 -5.10121,-14.170053 -6.80162,-14.736853 -1.7004,-0.5668 -7.65182,-30.32389 -7.65182,-30.32389 l -1.98381,-3.40081 0.5668,-3.40081 -5.66801,-4.25101 -0.85021,-4.25102 -1.9838,-3.68421 0.5668,-5.95142 1.9838,-3.68421 3.96762,-6.80162 1.9838,0.2834 0,3.68421 3.68421,2.55061 4.25102,6.23482 -0.2834,6.51822 -3.68421,1.98381 -0.28341,2.5506 1.98381,0.85021 3.11741,-1.70041 6.23482,-1.1336 9.06883,-13.88664 1.9838,0.8502 -0.5668,4.81781 4.81782,-2.2672 5.38461,-4.53442 -7.08502,-4.25101 -2.83401,0.5668 -1.1336,-3.40081 -7.36842,1.1336 -9.06883,-4.53441 -1.13361,-10.48583 1.98381,-3.68421 -0.2834,-5.10122 -2.55061,-10.76923 -5.95142,-6.80162 -7.65182,-8.50203 0.8502,-3.11741 0.5668,-7.65182 1.41701,-6.23482 -0.5668,-3.68421 z"
       style="fill:none;stroke:#0978ab;stroke-width:1;stroke-miterlimit:4;stroke-opacity:1;stroke-dasharray:none;display:inline" />
  </g>
</svg>
